<?xml version="1.0" encoding="UTF-8" standalone="no"?>
<svg width="397px" height="397px" viewBox="0 0 397 397" version="1.1" xmlns="http://www.w3.org/2000/svg" xmlns:xlink="http://www.w3.org/1999/xlink" xmlns:sketch="http://www.bohemiancoding.com/sketch/ns">
    <!-- Generator: Sketch 3.4.4 (17249) - http://www.bohemiancoding.com/sketch -->
    <title>PygothamLogoNoText</title>
    <desc>Created with Sketch.</desc>
    <defs/>
    <g id="Page-1" stroke="none" stroke-width="1" fill="none" fill-rule="evenodd" sketch:type="MSPage">
        <g id="Group" sketch:type="MSLayerGroup">
            <circle id="Oval-4" fill="#3F6B9D" sketch:type="MSShapeGroup" cx="198.5" cy="198.5" r="198.5"/>
            <g id="Group-18" transform="translate(47.000000, 49.000000)" sketch:type="MSShapeGroup">
                <path d="M134.611779,87.3303782 C126.407779,92.8623782 101.250779,103.003378 91.7087794,107.758378 C87.8467794,109.683378 84.2447794,110.364378 80.9897794,110.302378 C76.2057794,110.209378 72.1667794,108.512378 69.1337794,106.792378 C64.0377794,103.907378 61.2007794,100.342378 59.0117794,96.5233782 C55.7537794,90.8553782 65.0507794,82.0163782 65.0507794,82.0163782 C67.6627794,78.6883782 70.6917794,74.4133782 72.7227794,70.9793782 C74.9367794,67.2453782 77.7597794,64.2153782 80.4827794,60.2353782 C82.4997794,57.2863782 83.8787794,53.6533782 86.9627794,49.3953782 C88.5057794,47.2663782 90.4737794,44.9813782 93.1637794,42.5443782 C100.725779,35.6983782 108.821779,33.2713782 108.821779,33.2713782 C116.614779,31.2823782 119.554779,27.6843782 125.796779,21.3653782 C132.036779,15.0433782 144.464779,6.95637822 156.236779,3.78337822 C163.805779,1.74137822 170.266779,0.806378223 176.136779,0.918378223 C185.902779,1.10737822 194.042779,4.20637822 202.952779,9.97137822 C224.047779,23.6293782 233.529779,50.5473782 233.711779,51.0683782 C233.714779,51.0803782 232.500779,50.8893782 230.002779,50.8403782 C226.972779,50.7843782 222.053779,50.9343782 215.131779,51.8913782 C203.729779,53.4723782 193.947779,57.4323782 187.888779,60.0493782 C181.539779,62.7943782 162.432916,69.1122898 162.461916,69.0712898 M288.179779,89.6083782 C284.853779,81.7603782 281.660559,73.9835143 276.517779,67.5283782 C271.375,61.0732422 252.235352,53.4462891 232.805786,50.8505859 C227.197266,36.8789062 223.351837,30.105968 220.588867,26.0439453 C211.080078,12.0644531 190.080078,0.222656236 175.78418,0.222656236 C161.632812,0.222656236 142.933824,7.79041729 138.754883,11.3310547 C107.90625,37.4677734 121.943359,27.2548828 98.9716797,37.4677734 C82.091823,44.9723239 81.4375,34.8513794 66.9817794,34.8513782 C52.5260588,34.8513771 45.6357794,40.1703782 36.6467794,47.9033782 C31.6617794,52.1903782 27.0877794,57.4203782 22.6667794,63.8953782 C15.1017794,74.9613782 8.92377938,87.3363782 4.80277938,99.6763782 C-0.680220623,116.079378 -1.47322062,134.792378 2.44777938,155.299378 C5.48677938,171.197378 11.2667794,187.820378 19.6307794,204.723378 C20.2827794,206.717378 21.1617794,208.335378 22.0057794,209.578378 C23.4057794,212.561378 26.9125129,219.986558 31.9997794,228.403378 C43.3408203,247.166992 49.3137794,253.754378 57.7687794,260.354378 C65.2147794,268.097378 72.0627794,273.535378 78.1357794,276.528378 C81.4677794,278.169378 84.5707794,279.095378 87.6217794,279.360378 C88.7707794,279.460378 89.9467794,279.523378 91.1047794,279.546378 C104.189779,279.798378 114.248779,274.979378 123.120779,270.729378 C130.158779,267.357378 136.235779,264.445378 143.456779,263.968378 C144.364779,263.906378 145.273779,263.884378 146.185779,263.902378 C154.663779,264.066378 161.292779,267.564378 168.970779,271.614378 C177.359779,276.041378 186.869779,281.058378 199.316779,281.622378 C215.129779,281.938378 225.767779,272.065378 232.805779,265.535378 C238.829779,259.947378 244.975779,253.247378 251.075779,245.619378 C259.455779,235.144378 265.736328,226.522461 275.02832,212.366211 C286.036133,191.356445 285.521779,195.028378 293.825779,167.157378 C298.029779,153.050378 299.323779,138.399378 297.677779,123.606378 C297.677779,123.606378 289.750779,92.7103782 288.179779,89.6083782 Z M22.0859376,208.945313 C25.5263672,198.634377 31.0468752,187.798828 46.2041021,175.712502 C54.7218656,168.920463 71.948792,162.021018 76.6337883,160.303711 C90.292968,155.296875 107.884624,152.081805 122.140624,148.924805 C158.318624,140.920805 185.722779,140.582378 218.847779,134.037378 C224.507779,132.918378 229.626779,131.718378 234.249779,130.454378 C285.448779,116.499378 284.846765,83.1123048 284.846765,83.1123048 C284.970765,83.3423048 293.470354,103.356574 296.851556,118.552734 C299.510736,130.503906 299.242439,146.005711 294.981439,160.303711 C291.058439,173.469711 296.092777,157.476563 292.16016,169.730469 C292.16016,169.730469 287.857425,184.108399 274.044925,193.267578 C266.635337,198.180936 263.456712,199.547376 251.682621,200.605377 C239.908529,201.663378 234.414699,201.134377 229.762699,200.605377 C224.022699,199.947377 221.294779,199.131378 212.595779,198.776378 C211.029779,198.711378 209.434779,198.665378 207.855779,198.634378 C190.275779,198.294378 171.096779,200.023378 149.222779,203.923378 C111.226779,210.700378 100.12402,210.992188 78.7773443,226.229485 C76.3813769,227.939731 67.9837805,235.484368 60.9921881,245.642571 L53.6347662,256.348626 C36.4453131,237.846672 36.8964836,236.99218 32.1582027,229.590813 C32.0922027,229.302813 21.9746119,209.278955 22.0859376,208.945313 Z" id="Fill-14" stroke="#DD6527" stroke-width="5" fill="#E5C247"/>
                <path d="M152.154299,73.0136726 C173.674357,67.0056694 175.393779,52.4723782 170.097779,50.6673782 C169.640779,50.5103782 169.200779,50.4323782 168.769779,50.4233782 C164.167779,50.3343782 160.901779,58.3403782 156.685779,66.9363782 C156.611779,67.0943782 156.510779,67.2563782 156.426779,67.4153782 C153.038779,73.7873782 144.062779,80.9613782 134.611779,87.3303782 C126.407779,92.8623782 101.250779,103.003378 91.7087794,107.758378 C87.8467794,109.683378 84.2447794,110.364378 80.9897794,110.302378 C76.2057794,110.209378 72.1667794,108.512378 69.1337794,106.792378 C64.0377794,103.907378 61.2007794,100.342378 59.0117794,96.5233782 C55.7537794,90.8553782 65.0507794,82.0163782 65.0507794,82.0163782 C67.6627794,78.6883782 70.6917794,74.4133782 72.7227794,70.9793782 C74.9367794,67.2453782 77.7597794,64.2153782 80.4827794,60.2353782 C82.4997794,57.2863782 83.8787794,53.6533782 86.9627794,49.3953782 C88.5057794,47.2663782 90.4737794,44.9813782 93.1637794,42.5443782 C100.725779,35.6983782 108.821779,33.2713782 108.821779,33.2713782 C116.614779,31.2823782 119.554779,27.6843782 125.796779,21.3653782 C132.036779,15.0433782 144.464779,6.95637822 156.236779,3.78337822 C163.805779,1.74137822 170.266779,0.806378223 176.136779,0.918378223 C185.902779,1.10737822 194.042779,4.20637822 202.952779,9.97137822 C224.047779,23.6293782 233.529779,50.5473782 233.711779,51.0683782 C233.714779,51.0803782 232.500779,50.8893782 230.002779,50.8403782 C226.972779,50.7843782 222.053779,50.9343782 215.131779,51.8913782 C203.729779,53.4723782 193.947779,57.4323782 187.888779,60.0493782 C181.539779,62.7943782 162.432916,69.1122898 162.461916,69.0712898" id="Path" stroke="#DD6527" stroke-width="5"/>
                <path d="M107.9634,81.3789 C111.3994,81.4449 114.2414,78.7109 114.3074,75.2739 C114.3744,71.8339 111.6394,68.9949 108.2034,68.9279 C104.7634,68.8609 101.9254,71.5919 101.8594,75.0329 C101.7934,78.4709 104.5234,81.3129 107.9634,81.3789" id="Eye" fill="#FFFFFF"/>
            </g>
            <path d="M18.0856115,262.873347 C32.470479,305.980732 121.980725,318.031264 220.909626,284.816325 C318.937973,251.66389 388.750106,185.601862 372.850553,142.407209 C366.609139,125.301784 344.510183,108.610232 314.06487,107.071174 C314.06487,107.071174 317.378177,108.972033 318.657878,109.881936 C320.061446,110.879912 322.868581,112.875863 322.868581,112.875863 C348.792271,117.990316 362.625112,128.969893 368.1559,144.127727 C382.67513,183.572458 314.951555,247.733871 219.312995,280.078104 C122.754251,312.497267 35.9631186,300.65137 22.8307865,261.29751 C17.0354567,243.761789 21.1823238,214.561921 44.042854,192.270966 L43.8226694,185.965704 C16.4039221,208.27604 11.5640572,243.140226 18.0856115,262.873347 Z" id="Shape" fill="#21314D" sketch:type="MSShapeGroup"/>
            <path d="M28.400451,119.019872 C10.9758593,160.99075 76.1022788,226.811638 172.555829,266.647204 C268.288716,305.939127 359.173416,305.122667 375.177849,260.849666 C381.127581,244.390945 368.882112,212.566474 347.294054,190.031134 L347.526946,197.700279 C363.896072,218.794541 374.646109,245.62263 370.505988,259.068188 C358.31323,298.665685 267.858452,300.357778 174.459389,262.023739 C80.3166954,223.142557 17.1081638,159.260007 33.015522,120.943687 C40.3322086,103.462822 54.2993866,92.3721722 85.3403966,91.8511765 L92.3638558,86.7169015 C52.5625854,88.1067925 36.6813496,99.2353018 28.400451,119.019872 Z" id="Shape" fill="#21314D" sketch:type="MSShapeGroup"/>
            <path d="M13.7681105,209.575158 C13.5525205,197.208213 33.2371352,184.164191 68.8671968,176.061901 C103.629947,168.156838 150.673777,163.167035 200.931744,162.289779 C251.189712,161.412523 298.379026,164.757481 333.396482,171.444525 C369.287604,178.298408 389.910107,188.050134 390.118584,199.993756 C390.2915,209.900124 365.144641,221.258984 340.190009,228.648519 L342.011309,222.207113 C365.171456,214.919026 386.246,207.32832 386.119193,200.063565 C385.961718,191.041823 366.497743,181.837928 332.646187,175.373528 C297.920965,168.742289 251.001031,165.416425 201.001554,166.289169 C151.002077,167.161914 104.226796,172.123233 69.7541546,179.962325 C36.1488249,187.60419 19.4898045,200.45378 18.5104281,209.49238 C17.3589581,220.119222 35.6519284,225.359455 53.8238021,231.19637 L56.0318089,237.065511 C40.6574404,231.426189 14.0740724,227.126139 13.7681105,209.575158 Z" id="Shape" fill="#21314D" sketch:type="MSShapeGroup"/>
        </g>
    </g>
</svg>