<?xml version="1.0" encoding="utf-8"?>
<!-- Generator: Adobe Illustrator 15.1.0, SVG Export Plug-In . SVG Version: 6.00 Build 0)  -->
<!DOCTYPE svg PUBLIC "-//W3C//DTD SVG 1.1//EN" "http://www.w3.org/Graphics/SVG/1.1/DTD/svg11.dtd">
<svg version="1.1" id="Layer_1" xmlns="http://www.w3.org/2000/svg" xmlns:xlink="http://www.w3.org/1999/xlink" x="0px" y="0px"
	 width="656px" height="1080px" viewBox="0 0 656 1080" enable-background="new 0 0 656 1080" xml:space="preserve">
<g id="Layer_9" display="none">
	<rect x="18.384" y="646.099" display="inline" fill="none" stroke="#CB892A" stroke-width="4" width="77.996" height="270.198"/>
	<rect x="162.043" y="646.099" display="inline" fill="none" stroke="#CB892A" stroke-width="4" width="77.996" height="270.198"/>
	<rect x="24.384" y="521.666" display="inline" fill="none" stroke="#CB892A" stroke-width="4" width="71.996" height="124.494"/>
	<rect x="162.042" y="521.666" display="inline" fill="none" stroke="#CB892A" stroke-width="4" width="71.996" height="124.494"/>
	<rect x="43.305" y="448.595" display="inline" fill="none" stroke="#CB892A" stroke-width="4" width="174" height="73.071"/>
	<rect x="86.184" y="521.666" display="inline" fill="none" stroke="#CB892A" stroke-width="4" width="88.071" height="394.631"/>
	<rect x="72.449" y="521.666" display="inline" fill="none" stroke="#CB892A" stroke-width="4" width="115.551" height="394.631"/>
	<rect x="57.268" y="521.666" display="inline" fill="none" stroke="#CB892A" stroke-width="4" width="144.784" height="394.631"/>
	<rect x="43.09" y="521.666" display="inline" fill="none" stroke="#CB892A" stroke-width="4" width="173.215" height="394.631"/>
	<rect x="51.434" y="417.062" display="inline" fill="none" stroke="#CB892A" stroke-width="4" width="157.735" height="31.53"/>
	<rect x="68.304" y="389.482" display="inline" fill="none" stroke="#CB892A" stroke-width="4" width="123" height="27.579"/>
	<rect x="85.3" y="369.701" display="inline" fill="none" stroke="#CB892A" stroke-width="4" width="89.004" height="19.781"/>
	<rect x="107.306" y="183.701" display="inline" fill="none" stroke="#CB892A" stroke-width="4" width="45" height="186"/>
	<polyline display="inline" fill="none" stroke="#CB892A" stroke-width="4" points="122.304,183.707 130.302,-54.299 
		138.302,183.707 	"/>
	<line display="inline" fill="none" stroke="#CB892A" stroke-width="4" x1="228.637" y1="644.368" x2="230.305" y2="916.04"/>
	<line display="inline" fill="none" stroke="#CB892A" stroke-width="4" x1="30.229" y1="644.368" x2="31.897" y2="916.04"/>
	<line display="inline" fill="none" stroke="#CB892A" stroke-width="4" x1="111.31" y1="473.807" x2="111.31" y2="916.04"/>
	<line display="inline" fill="none" stroke="#CB892A" stroke-width="4" x1="130.302" y1="473.807" x2="130.302" y2="916.04"/>
	<line display="inline" fill="none" stroke="#CB892A" stroke-width="4" x1="149.347" y1="473.807" x2="149.347" y2="916.04"/>
</g>
<g id="Layer_6" display="none" opacity="0.48">
	<g display="inline">
		
			<image overflow="visible" enable-background="new    " width="481" height="734" id="XNsuuA_1_" xlink:href="EEF9EE3A.png"  transform="matrix(1.6741 0 0 1.673 -578.002 60.2861)">
		</image>
	</g>
</g>
<g id="Layer_7" display="none">
	<rect x="-628" display="inline" fill="#020202" width="1920" height="1080"/>
</g>
<g id="Navy_Background">
	<polygon fill="none" stroke="#CB892A" stroke-width="3" points="554.014,1000.346 103.68,1000.346 54.907,936.062 103.68,869.085 
		554.014,869.085 601.138,936.062 	"/>
	
		<rect x="126.802" y="349.679" fill="none" stroke="#F9ED32" stroke-width="3" stroke-miterlimit="10" width="34.532" height="79.999"/>
	<rect x="503.988" y="354.2" fill="none" stroke="#CB892A" stroke-width="3" width="29.062" height="73.481"/>
	<rect x="141.334" y="314.604" fill="none" stroke="#CB892A" stroke-width="3" width="20" height="111.414"/>
	<rect x="103.545" y="516.321" fill="none" stroke="#CB892A" stroke-width="6" width="449.04" height="353.113"/>
	
		<linearGradient id="SVGID_1_" gradientUnits="userSpaceOnUse" x1="-935.1597" y1="358.6196" x2="-663.4359" y2="90.6701" gradientTransform="matrix(1 0 0 1 1128 469)">
		<stop  offset="0" style="stop-color:#F7941E"/>
		<stop  offset="0.638" style="stop-color:#F9ED32"/>
		<stop  offset="1" style="stop-color:#F7941E"/>
	</linearGradient>
	<circle fill="url(#SVGID_1_)" stroke="#CB892A" stroke-width="4" cx="328.702" cy="693.645" r="190.808"/>
	<circle fill="#020202" stroke="#CB892A" stroke-width="6" cx="328.466" cy="692.879" r="176.559"/>
	<circle fill="none" stroke="#CB892A" stroke-width="6" cx="329.003" cy="692.416" r="159.005"/>
	<polygon fill="none" stroke="#CB892A" stroke-width="3" points="534.146,968.759 125.74,968.759 101.543,936.375 125.74,904.575 
		534.146,904.575 555.334,936.375 	"/>
	<polygon fill="none" stroke="#CB892A" stroke-width="3" points="544.876,979.013 112.14,979.013 80.369,936.277 112.14,892.123 
		544.876,892.123 575.573,935.276 	"/>
	<rect x="136.737" y="925.482" fill="none" width="384.129" height="28.529"/>
	<g enable-background="new    ">
		<path fill="none" stroke="#F9ED32" d="M160.567,925.486h0.899v23.591l-17.112-21.049v20.708h-0.899v-23.592l17.112,21.019V925.486
			z"/>
		<path fill="none" stroke="#F9ED32" d="M166.116,925.486h8.339v0.898h-7.316v12.647h6.107v0.898h-6.107v7.904h7.316v0.899h-8.339
			V925.486z"/>
		<path fill="none" stroke="#F9ED32" d="M186.048,949.14l-10.199-23.652h1.147l9.207,21.297l4.309-10.075l-4.805-11.222h1.116
			l4.309,10.198l4.433-10.198h0.868l-4.836,11.19l4.402,10.198l9.393-21.39h0.837l-10.323,23.652l-4.929-11.347L186.048,949.14z"/>
		<path fill="none" stroke="#F9ED32" d="M226.502,948.736h-1.023v-9.301l-7.068-13.949h1.116l6.541,12.864l6.417-12.864h0.93
			l-6.913,13.949V948.736z"/>
		<path fill="none" stroke="#F9ED32" d="M237.213,945.513c-2.346-2.418-3.519-5.244-3.519-8.479c0-3.235,1.188-6.035,3.565-8.401
			c2.376-2.366,5.229-3.55,8.556-3.55c3.327,0,6.169,1.179,8.525,3.534s3.534,5.162,3.534,8.417s-1.168,6.086-3.503,8.493
			s-5.125,3.611-8.37,3.611h-0.465C242.333,949.14,239.558,947.931,237.213,945.513z M256.851,937.096
			c0-3.048-1.08-5.662-3.239-7.843c-2.16-2.181-4.764-3.271-7.812-3.271c-3.049,0-5.658,1.09-7.828,3.271
			c-2.17,2.181-3.255,4.795-3.255,7.843c0,3.049,1.085,5.668,3.255,7.858c2.17,2.19,4.774,3.286,7.812,3.286
			s5.642-1.096,7.812-3.286C255.766,942.764,256.851,940.145,256.851,937.096z"/>
		<path fill="none" stroke="#F9ED32" d="M261.594,925.486h1.333c2.004,0,3.766,0.738,5.285,2.217
			c1.519,1.478,2.279,3.214,2.279,5.208s-0.775,3.725-2.325,5.192c-1.55,1.467-3.214,2.2-4.991,2.2h-0.217l7.998,8.433h-1.333
			l-7.037-7.378v7.378h-0.992V925.486z M262.586,939.405h0.558c1.674,0,3.151-0.642,4.433-1.922
			c1.281-1.281,1.922-2.801,1.922-4.558s-0.662-3.286-1.984-4.589c-1.323-1.302-2.832-1.952-4.526-1.952h-0.403V939.405z"/>
		<path fill="none" stroke="#F9ED32" d="M274.211,925.486h0.992v8.524l9.827-8.524h1.24l-10.633,9.269l13.361,13.981h-1.364
			l-12.4-12.928v12.928h-1.023V925.486L274.211,925.486z"/>
		<path fill="none" stroke="#F9ED32" d="M314.107,949.077h-0.341c-2.128,0-4.113-0.558-5.952-1.674
			c-1.84-1.116-3.292-2.6-4.355-4.448c-1.065-1.85-1.597-3.818-1.597-5.905c0-3.286,1.188-6.112,3.565-8.479
			c2.376-2.366,5.218-3.55,8.525-3.55c2.211,0,4.309,0.578,6.293,1.735v1.146c-1.943-1.322-4.041-1.984-6.293-1.984
			c-3.038,0-5.642,1.091-7.812,3.271c-2.17,2.181-3.255,4.795-3.255,7.844c0,3.048,1.085,5.668,3.255,7.857
			c2.17,2.19,4.774,3.286,7.812,3.286c2.252,0,4.35-0.661,6.293-1.983v1.146C318.364,948.499,316.318,949.077,314.107,949.077z"/>
		<path fill="none" stroke="#F9ED32" d="M324.585,925.486h1.023v23.25h-1.023V925.486z"/>
		<path fill="none" stroke="#F9ED32" d="M340.396,925.486v0.898h-5.303v22.352h-1.021v-22.352h-5.362v-0.898H340.396z"/>
		<path fill="none" stroke="#F9ED32" d="M349.727,948.736h-1.022v-9.301l-7.068-13.949h1.116l6.541,12.864l6.417-12.864h0.931
			l-6.912,13.949v9.301H349.727z"/>
		<path fill="none" stroke="#F9ED32" d="M371.52,939.87c0-0.971,0.49-1.457,1.472-1.457s1.473,0.486,1.473,1.457
			c0,0.455-0.135,0.812-0.401,1.069c-0.271,0.259-0.631,0.388-1.086,0.388C372.004,941.327,371.52,940.842,371.52,939.87z"/>
		<path fill="none" stroke="#F9ED32" d="M393.637,945.513c-2.346-2.418-3.52-5.244-3.52-8.479c0-3.235,1.188-6.035,3.564-8.401
			c2.376-2.366,5.229-3.55,8.557-3.55c3.328,0,6.17,1.179,8.524,3.534c2.355,2.355,3.534,5.162,3.534,8.417
			s-1.168,6.086-3.503,8.493c-2.336,2.407-5.126,3.611-8.37,3.611h-0.466C398.756,949.14,395.98,947.931,393.637,945.513z
			 M413.274,937.096c0-3.048-1.08-5.662-3.239-7.843c-2.16-2.181-4.764-3.271-7.812-3.271c-3.048,0-5.656,1.09-7.826,3.271
			s-3.256,4.795-3.256,7.843c0,3.049,1.086,5.668,3.256,7.858s4.773,3.286,7.812,3.286c3.039,0,5.643-1.096,7.812-3.286
			C412.189,942.764,413.274,940.145,413.274,937.096z"/>
		<path fill="none" stroke="#F9ED32" d="M429.332,949.077h-0.341c-2.128,0-4.112-0.558-5.952-1.674s-3.291-2.6-4.355-4.448
			c-1.063-1.849-1.596-3.818-1.596-5.905c0-3.286,1.188-6.112,3.564-8.479c2.376-2.367,5.219-3.55,8.524-3.55
			c2.211,0,4.31,0.578,6.293,1.735v1.146c-1.942-1.322-4.041-1.984-6.293-1.984c-3.039,0-5.643,1.091-7.812,3.271
			c-2.17,2.181-3.255,4.795-3.255,7.844c0,3.048,1.085,5.668,3.255,7.857c2.17,2.19,4.772,3.286,7.812,3.286
			c2.252,0,4.351-0.661,6.293-1.983v1.146C433.59,948.499,431.543,949.077,429.332,949.077z"/>
		<path fill="none" stroke="#F9ED32" d="M449.638,925.486v0.898h-5.302v22.352h-1.021v-22.352h-5.362v-0.898H449.638z"/>
		<path fill="none" stroke="#F9ED32" d="M449.684,948.953c-0.713,0-1.068-0.32-1.068-0.961c0-0.642,0.355-0.961,1.068-0.961
			s1.07,0.319,1.07,0.961C450.754,948.633,450.396,948.953,449.684,948.953z"/>
		<path fill="none" stroke="#F9ED32" d="M472.73,931.531c2.273,0,4.272,0.879,6,2.635c1.725,1.757,2.588,3.834,2.588,6.231
			c0,2.396-0.867,4.447-2.604,6.152s-3.817,2.559-6.247,2.559c-2.429,0-4.495-0.849-6.2-2.542c-1.704-1.694-2.557-3.735-2.557-6.123
			s1.043-4.778,3.131-7.177l6.789-7.78h1.178l-6.139,7.037c0.353-0.27,0.931-0.501,1.736-0.697
			C471.213,931.63,471.987,931.531,472.73,931.531z M464.672,940.382c0,2.16,0.764,4.01,2.293,5.549
			c1.529,1.54,3.364,2.311,5.503,2.311c2.141,0,3.963-0.771,5.472-2.311c1.509-1.539,2.265-3.395,2.265-5.563
			s-0.76-4.04-2.279-5.611c-1.52-1.57-3.332-2.354-5.439-2.354c-2.108,0-3.938,0.79-5.487,2.37
			C465.446,936.352,464.672,938.223,464.672,940.382z"/>
		<path fill="none" stroke="#F9ED32" d="M493.129,936.739h-9.641v-0.961h9.641V936.739z"/>
		<path fill="none" stroke="#F9ED32" d="M507.854,929.857c0,0.848-0.227,1.633-0.682,2.354c-0.455,0.724-1.074,1.292-1.859,1.705
			c1.675,0.414,3.054,1.333,4.14,2.76c1.084,1.427,1.627,2.986,1.627,4.682c0,2.148-0.771,3.987-2.31,5.518
			c-1.541,1.53-3.396,2.294-5.564,2.294s-4.03-0.77-5.58-2.31c-1.55-1.539-2.325-3.373-2.325-5.502c0-1.653,0.521-3.173,1.566-4.558
			c1.043-1.385,2.381-2.325,4.014-2.82c-0.765-0.372-1.395-0.94-1.891-1.705c-0.496-0.766-0.744-1.57-0.744-2.418
			c0-1.303,0.465-2.407,1.395-3.317c0.932-0.909,2.062-1.363,3.396-1.363c1.334,0,2.47,0.454,3.41,1.363
			C507.384,927.45,507.854,928.556,507.854,929.857z M496.322,941.405c0,1.87,0.677,3.481,2.029,4.836
			c1.354,1.354,2.972,2.03,4.853,2.03c1.88,0,3.492-0.678,4.836-2.03c1.343-1.354,2.015-2.972,2.015-4.853s-0.672-3.503-2.015-4.866
			c-1.344-1.364-2.95-2.047-4.82-2.047s-3.487,0.688-4.852,2.062C497.003,937.912,496.322,939.534,496.322,941.405z
			 M503.033,926.044c-1.022,0-1.912,0.378-2.666,1.132c-0.754,0.755-1.131,1.64-1.131,2.65c0,1.013,0.377,1.896,1.131,2.65
			s1.644,1.132,2.666,1.132s1.917-0.377,2.682-1.132c0.766-0.755,1.147-1.639,1.147-2.65s-0.384-1.896-1.147-2.65
			C504.95,926.422,504.057,926.044,503.033,926.044z"/>
	</g>
	<polygon fill="none" stroke="#CB892A" stroke-width="3" points="532.567,491.299 127.085,491.299 103.062,459.938 127.085,428.576 
		533.568,428.576 553.588,459.938 	"/>
	<g>
		<rect x="136.919" y="442.818" fill="none" width="384.129" height="119.814"/>
		<g enable-background="new    ">
			<path fill="#F9ED32" d="M141.23,442.815h1.584c3.328,0,6.16,1.145,8.496,3.432c2.335,2.289,3.504,4.984,3.504,8.088
				c0,3.104-1.208,5.777-3.624,8.017c-2.417,2.24-5.081,3.36-7.992,3.36h-0.384v13.104h-1.584V442.815z M142.815,464.367h0.384
				c2.688,0,5.032-0.991,7.032-2.977c2-1.983,3-4.336,3-7.057c0-2.719-1.016-5.088-3.048-7.104c-2.032-2.017-4.36-3.024-6.984-3.024
				h-0.384V464.367z"/>
			<path fill="#F9ED32" d="M169.886,478.815h-1.584v-14.4l-10.944-21.6h1.728l10.128,19.92l9.936-19.92h1.44l-10.704,21.6V478.815z"
				/>
			<path fill="#F9ED32" d="M195.327,465.088v-1.393h13.488v13.008c-2.816,1.761-5.984,2.641-9.504,2.641h-0.528
				c-3.296,0-6.368-0.863-9.216-2.593c-2.849-1.728-5.096-4.023-6.744-6.888c-1.648-2.863-2.472-5.911-2.472-9.145
				c0-5.088,1.839-9.464,5.52-13.128c3.679-3.664,8.08-5.496,13.2-5.496c3.424,0,6.672,0.896,9.744,2.688v1.775
				c-3.008-2.048-6.256-3.071-9.744-3.071c-4.704,0-8.736,1.688-12.096,5.063s-5.04,7.424-5.04,12.145s1.68,8.775,5.04,12.168
				s7.392,5.088,12.096,5.088c2.624,0,5.344-0.672,8.16-2.017v-10.848L195.327,465.088L195.327,465.088z"/>
			<path fill="#F9ED32" d="M219.062,473.823c-3.632-3.744-5.448-8.119-5.448-13.128c0-5.008,1.839-9.345,5.52-13.008
				c3.679-3.664,8.095-5.496,13.248-5.496c5.151,0,9.552,1.823,13.2,5.472c3.648,3.647,5.472,7.992,5.472,13.032
				s-1.808,9.425-5.424,13.151c-3.616,3.728-7.937,5.593-12.96,5.593h-0.72C226.99,479.439,222.693,477.567,219.062,473.823z
				 M249.47,460.791c0-4.72-1.673-8.767-5.016-12.145c-3.344-3.376-7.376-5.063-12.096-5.063c-4.72,0-8.76,1.688-12.12,5.063
				c-3.36,3.378-5.04,7.425-5.04,12.145c0,4.721,1.68,8.777,5.04,12.168c3.36,3.393,7.392,5.089,12.096,5.089
				s8.736-1.696,12.096-5.089C247.79,469.568,249.47,465.512,249.47,460.791z"/>
			<path fill="#F9ED32" d="M268.238,442.815v1.392h-8.208v34.608h-1.584v-34.608h-8.304v-1.392H268.238z"/>
			<path fill="#F9ED32" d="M299.053,442.815h1.584v36h-1.584v-13.729h-24.672v13.729h-1.584v-36h1.584v20.88h24.672V442.815z"/>
			<path fill="#F9ED32" d="M323.629,441.951l18,36.864h-1.68l-6.816-13.729h-19.248l-6.72,13.729h-1.488L323.629,441.951z
				 M323.485,445.264l-8.976,18.433h18.048L323.485,445.264z"/>
			<path fill="#F9ED32" d="M383.581,442.815v36h-1.584v-34.128l-16.992,34.8l-16.896-34.8v34.128h-1.44v-36h2.304l16.176,33.216
				l16.226-33.216H383.581z"/>
			<path fill="#F9ED32" d="M430.668,455.775c0-3.231-1.057-6.049-3.168-8.448s-4.912-3.601-8.4-3.601
				c-3.487,0-6.393,1.257-8.711,3.769c-2.32,2.513-3.479,5.561-3.479,9.145h-1.488c0-4.062,1.312-7.456,3.937-10.176
				c2.623-2.72,5.896-4.08,9.815-4.08s7.08,1.328,9.48,3.983c2.398,2.657,3.6,5.809,3.6,9.456c0,5.279-2.832,9.695-8.496,13.248
				l-13.056,8.16h21.407v1.584h-26.399l16.752-10.608C427.932,464.751,430.668,460.607,430.668,455.775z"/>
			<path fill="#F9ED32" d="M455.436,479.439h-0.72c-4.96,0-9.24-1.855-12.841-5.568c-3.6-3.711-5.399-8.071-5.399-13.08
				c0-5.008,1.824-9.343,5.473-13.008c3.647-3.663,8.032-5.496,13.151-5.496s9.504,1.824,13.152,5.473
				c3.648,3.647,5.472,8.032,5.472,13.151c0,3.231-0.814,6.271-2.447,9.12c-1.632,2.849-3.863,5.129-6.695,6.84
				C461.748,478.584,458.699,479.439,455.436,479.439z M472.14,460.888c0-4.72-1.673-8.768-5.017-12.145
				c-3.344-3.375-7.359-5.063-12.047-5.063c-4.689,0-8.697,1.688-12.024,5.063c-3.329,3.377-4.991,7.425-4.991,12.145
				c0,4.722,1.662,8.761,4.991,12.12c3.327,3.359,7.335,5.04,12.024,5.04c4.688,0,8.703-1.681,12.047-5.04
				C470.467,469.647,472.14,465.608,472.14,460.888z"/>
			<path fill="#F9ED32" d="M478.188,478.815v-34.513h-5.664v-1.393h7.248v35.904L478.188,478.815L478.188,478.815z"/>
			<path fill="#F9ED32" d="M484.332,442.911h23.76l-18.527,35.904h-1.776l17.809-34.513h-21.264L484.332,442.911L484.332,442.911z"
				/>
		</g>
		<g enable-background="new    ">
			<path fill="none" stroke="#F9ED32" stroke-width="2" d="M141.23,442.815h1.584c3.328,0,6.16,1.145,8.496,3.432
				c2.335,2.289,3.504,4.984,3.504,8.088c0,3.104-1.208,5.777-3.624,8.017c-2.417,2.24-5.081,3.36-7.992,3.36h-0.384v13.104h-1.584
				V442.815z M142.815,464.367h0.384c2.688,0,5.032-0.991,7.032-2.977c2-1.983,3-4.336,3-7.057c0-2.719-1.016-5.088-3.048-7.104
				c-2.032-2.017-4.36-3.024-6.984-3.024h-0.384V464.367z"/>
			<path fill="none" stroke="#F9ED32" stroke-width="2" d="M169.886,478.815h-1.584v-14.4l-10.944-21.6h1.728l10.128,19.92
				l9.936-19.92h1.44l-10.704,21.6V478.815z"/>
			<path fill="none" stroke="#F9ED32" stroke-width="2" d="M195.327,465.088v-1.393h13.488v13.008
				c-2.816,1.761-5.984,2.641-9.504,2.641h-0.528c-3.296,0-6.368-0.863-9.216-2.593c-2.849-1.728-5.096-4.023-6.744-6.888
				c-1.648-2.863-2.472-5.911-2.472-9.145c0-5.088,1.839-9.464,5.52-13.128c3.679-3.664,8.08-5.496,13.2-5.496
				c3.424,0,6.672,0.896,9.744,2.688v1.775c-3.008-2.048-6.256-3.071-9.744-3.071c-4.704,0-8.736,1.688-12.096,5.063
				s-5.04,7.424-5.04,12.145s1.68,8.775,5.04,12.168s7.392,5.088,12.096,5.088c2.624,0,5.344-0.672,8.16-2.017v-10.848
				L195.327,465.088L195.327,465.088z"/>
			<path fill="none" stroke="#F9ED32" stroke-width="2" d="M219.062,473.823c-3.632-3.744-5.448-8.119-5.448-13.128
				c0-5.008,1.839-9.345,5.52-13.008c3.679-3.664,8.095-5.496,13.248-5.496c5.151,0,9.552,1.823,13.2,5.472
				c3.648,3.647,5.472,7.992,5.472,13.032s-1.808,9.425-5.424,13.151c-3.616,3.728-7.937,5.593-12.96,5.593h-0.72
				C226.99,479.439,222.693,477.567,219.062,473.823z M249.47,460.791c0-4.72-1.673-8.767-5.016-12.145
				c-3.344-3.376-7.376-5.063-12.096-5.063c-4.72,0-8.76,1.688-12.12,5.063c-3.36,3.378-5.04,7.425-5.04,12.145
				c0,4.721,1.68,8.777,5.04,12.168c3.36,3.393,7.392,5.089,12.096,5.089s8.736-1.696,12.096-5.089
				C247.79,469.568,249.47,465.512,249.47,460.791z"/>
			<path fill="none" stroke="#F9ED32" stroke-width="2" d="M268.238,442.815v1.392h-8.208v34.608h-1.584v-34.608h-8.304v-1.392
				H268.238z"/>
			<path fill="none" stroke="#F9ED32" stroke-width="2" d="M299.053,442.815h1.584v36h-1.584v-13.729h-24.672v13.729h-1.584v-36
				h1.584v20.88h24.672V442.815z"/>
			<path fill="none" stroke="#F9ED32" stroke-width="2" d="M323.629,441.951l18,36.864h-1.68l-6.816-13.729h-19.248l-6.72,13.729
				h-1.488L323.629,441.951z M323.485,445.264l-8.976,18.433h18.048L323.485,445.264z"/>
			<path fill="none" stroke="#F9ED32" stroke-width="2" d="M383.581,442.815v36h-1.584v-34.128l-16.992,34.8l-16.896-34.8v34.128
				h-1.44v-36h2.304l16.176,33.216l16.226-33.216H383.581z"/>
			<path fill="none" stroke="#F9ED32" stroke-width="2" d="M430.668,455.775c0-3.231-1.057-6.049-3.168-8.448
				s-4.912-3.601-8.4-3.601c-3.487,0-6.393,1.257-8.711,3.769c-2.32,2.513-3.479,5.561-3.479,9.145h-1.488
				c0-4.062,1.312-7.456,3.937-10.176c2.623-2.72,5.896-4.08,9.815-4.08s7.08,1.328,9.48,3.983c2.398,2.657,3.6,5.809,3.6,9.456
				c0,5.279-2.832,9.695-8.496,13.248l-13.056,8.16h21.407v1.584h-26.399l16.752-10.608
				C427.932,464.751,430.668,460.607,430.668,455.775z"/>
			<path fill="none" stroke="#F9ED32" stroke-width="2" d="M455.436,479.439h-0.72c-4.96,0-9.24-1.855-12.841-5.568
				c-3.6-3.711-5.399-8.071-5.399-13.08c0-5.008,1.824-9.343,5.473-13.008c3.647-3.663,8.032-5.496,13.151-5.496
				s9.504,1.824,13.152,5.473c3.648,3.647,5.472,8.032,5.472,13.151c0,3.231-0.814,6.271-2.447,9.12
				c-1.632,2.849-3.863,5.129-6.695,6.84C461.748,478.584,458.699,479.439,455.436,479.439z M472.14,460.888
				c0-4.72-1.673-8.768-5.017-12.145c-3.344-3.375-7.359-5.063-12.047-5.063c-4.689,0-8.697,1.688-12.024,5.063
				c-3.329,3.377-4.991,7.425-4.991,12.145c0,4.722,1.662,8.761,4.991,12.12c3.327,3.359,7.335,5.04,12.024,5.04
				c4.688,0,8.703-1.681,12.047-5.04C470.467,469.647,472.14,465.608,472.14,460.888z"/>
			<path fill="none" stroke="#F9ED32" stroke-width="2" d="M478.188,478.815v-34.513h-5.664v-1.393h7.248v35.904L478.188,478.815
				L478.188,478.815z"/>
			<path fill="none" stroke="#F9ED32" stroke-width="2" d="M484.332,442.911h23.76l-18.527,35.904h-1.776l17.809-34.513h-21.264
				L484.332,442.911L484.332,442.911z"/>
		</g>
	</g>
	<polygon fill="none" stroke="#CB892A" stroke-width="4" points="493.318,429.415 449,430.271 449,303.542 493.318,327.959 	"/>
	
		<rect x="269.332" y="311.812" fill="none" stroke="#F9ED32" stroke-width="3" stroke-miterlimit="10" width="32.681" height="115.675"/>
	<polygon fill="none" stroke="#F9ED32" stroke-width="3" stroke-linecap="round" stroke-miterlimit="10" points="483.84,427.719 
		459.219,427.719 459.219,327.715 483.84,340.215 	"/>
	
		<linearGradient id="SVGID_2_" gradientUnits="userSpaceOnUse" x1="-999.1445" y1="82.835" x2="-967.7577" y2="51.884" gradientTransform="matrix(1 0 0 1 1128 469)">
		<stop  offset="0" style="stop-color:#F7941E"/>
		<stop  offset="0.638" style="stop-color:#F9ED32"/>
		<stop  offset="1" style="stop-color:#F7941E"/>
	</linearGradient>
	<polygon fill="url(#SVGID_2_)" points="136.401,528.013 137.045,560.141 167.271,528.013 	"/>
	
		<linearGradient id="SVGID_3_" gradientUnits="userSpaceOnUse" x1="-623.665" y1="75.4409" x2="-607.2764" y2="59.2799" gradientTransform="matrix(1 0 0 1 1128 469)">
		<stop  offset="0" style="stop-color:#F7941E"/>
		<stop  offset="0.638" style="stop-color:#F9ED32"/>
		<stop  offset="1" style="stop-color:#F7941E"/>
	</linearGradient>
	<polygon fill="url(#SVGID_3_)" points="520.46,528.013 519.816,560.141 489.59,528.013 	"/>
	
		<linearGradient id="SVGID_4_" gradientUnits="userSpaceOnUse" x1="-991.8628" y1="384.8735" x2="-975.4738" y2="368.7122" gradientTransform="matrix(1 0 0 1 1128 469)">
		<stop  offset="0" style="stop-color:#F7941E"/>
		<stop  offset="0.638" style="stop-color:#F9ED32"/>
		<stop  offset="1" style="stop-color:#F7941E"/>
	</linearGradient>
	<polygon fill="url(#SVGID_4_)" points="136.401,854.141 137.045,822.013 167.271,854.141 	"/>
	
		<linearGradient id="SVGID_5_" gradientUnits="userSpaceOnUse" x1="-631.3813" y1="392.2681" x2="-599.9945" y2="361.3171" gradientTransform="matrix(1 0 0 1 1128 469)">
		<stop  offset="0" style="stop-color:#F7941E"/>
		<stop  offset="0.638" style="stop-color:#F9ED32"/>
		<stop  offset="1" style="stop-color:#F7941E"/>
	</linearGradient>
	<polygon fill="url(#SVGID_5_)" points="520.46,854.141 519.816,822.013 489.59,854.141 	"/>
	
		<linearGradient id="SVGID_6_" gradientUnits="userSpaceOnUse" x1="-908.6509" y1="-68.6763" x2="-824.0151" y2="-152.1365" gradientTransform="matrix(1 0 0 1 1128 469)">
		<stop  offset="0" style="stop-color:#F7941E"/>
		<stop  offset="0.638" style="stop-color:#F9ED32"/>
		<stop  offset="1" style="stop-color:#F7941E"/>
	</linearGradient>
	<rect x="245.334" y="290.513" fill="url(#SVGID_6_)" width="32.666" height="136.162"/>
	
		<linearGradient id="SVGID_7_" gradientUnits="userSpaceOnUse" x1="-750.5464" y1="-74.293" x2="-657.7158" y2="-165.8339" gradientTransform="matrix(1 0 0 1 1128 469)">
		<stop  offset="0" style="stop-color:#F7941E"/>
		<stop  offset="0.638" style="stop-color:#F9ED32"/>
		<stop  offset="1" style="stop-color:#F7941E"/>
	</linearGradient>
	<rect x="408.252" y="271.933" fill="url(#SVGID_7_)" width="31.232" height="154.006"/>
	<line fill="none" stroke="#CB892A" stroke-width="6" x1="518.338" y1="684.986" x2="552.585" y2="684.986"/>
	<line fill="none" stroke="#CB892A" stroke-width="6" x1="101.543" y1="684.986" x2="137.894" y2="684.986"/>
	<line fill="none" stroke="#CB892A" stroke-width="3" x1="163" y1="376.451" x2="176.832" y2="376.451"/>
	<line fill="none" stroke="#CB892A" stroke-width="3" x1="223.67" y1="335.492" x2="245.334" y2="335.492"/>
	<line fill="none" stroke="#CB892A" stroke-width="3" x1="493.318" y1="366.688" x2="503.988" y2="366.912"/>
	<polyline fill="none" stroke="#CB892A" stroke-width="5" points="126.969,1000.016 126.969,428.802 531.553,428.802 
		531.553,1000.016 	"/>
	<polygon fill="none" stroke="#CB892A" stroke-width="3" points="552.691,491.299 108.293,491.299 81.963,458.862 108.293,426.426 
		553.787,426.426 575.729,458.862 	"/>
	<line fill="none" stroke="#CB892A" stroke-width="3" x1="439.154" y1="315.666" x2="449.824" y2="315.889"/>
	<line fill="none" stroke="#CB892A" stroke-width="3" x1="400.062" y1="371.542" x2="408.252" y2="371.766"/>
</g>
<g id="Empire_State_Building">
	
		<line fill="none" stroke="#F9ED32" stroke-width="3" stroke-linecap="round" stroke-miterlimit="10" x1="344.868" y1="252.924" x2="344.868" y2="428.576"/>
	
		<line fill="none" stroke="#F9ED32" stroke-width="3" stroke-linecap="round" stroke-miterlimit="10" x1="351.477" y1="252.924" x2="351.477" y2="428.576"/>
	
		<line fill="none" stroke="#F9ED32" stroke-width="3" stroke-linecap="round" stroke-miterlimit="10" x1="358.104" y1="252.924" x2="358.104" y2="428.576"/>
	<rect x="302.017" y="321.358" fill="none" stroke="#CB892A" stroke-width="3" width="35.984" height="107.319"/>
	<rect x="364.082" y="321.358" fill="none" stroke="#CB892A" stroke-width="3" width="35.984" height="107.319"/>
	<rect x="307.402" y="271.933" fill="none" stroke="#CB892A" stroke-width="3" width="30.599" height="49.449"/>
	<rect x="364.082" y="271.933" fill="none" stroke="#CB892A" stroke-width="3" width="30.6" height="49.449"/>
	
		<rect x="316.919" y="242.91" fill="none" stroke="#CB892A" stroke-width="3" stroke-linecap="round" width="69.113" height="29.023"/>
	<rect x="328.496" y="271.933" fill="none" stroke="#CB892A" stroke-width="3" width="45.896" height="156.746"/>
	<rect x="316.835" y="271.933" fill="none" stroke="#CB892A" stroke-width="3" width="68.8" height="156.746"/>
	<rect x="320.149" y="230.386" fill="none" stroke="#CB892A" stroke-width="3" width="62.65" height="12.524"/>
	<rect x="326.85" y="219.431" fill="none" stroke="#CB892A" stroke-width="3" width="48.854" height="10.955"/>
	<rect x="333.602" y="211.574" fill="none" stroke="#CB892A" stroke-width="3" width="35.353" height="7.857"/>
	<polygon fill="none" stroke="#CB892A" stroke-width="3" points="362.217,211.574 340.339,211.574 344.343,137.696 358.213,137.696 
			"/>
	<polyline fill="none" stroke="#CB892A" stroke-width="3" stroke-linecap="round" points="348.298,137.698 351.477,43.164 
		354.652,137.698 	"/>
	
		<line fill="none" stroke="#F9ED32" stroke-width="3" stroke-linecap="round" stroke-miterlimit="10" x1="351.477" y1="148.822" x2="351.477" y2="211.574"/>
</g>
<g id="Logo">
	<g id="Light_Blue_1_">
		<g id="Light_Blue">
			<path fill="none" stroke="#F9ED32" stroke-width="3" stroke-miterlimit="10" d="M126.802,425.681
				c0-113.286,91.521-195.167,203.32-195.167s202.929,83.542,202.929,194.159"/>
			<g>
				<g display="none">
					<g display="inline">
						<g>
							
								<linearGradient id="SVGID_8_" gradientUnits="userSpaceOnUse" x1="-887.1606" y1="310.3901" x2="-701.4011" y2="127.2107" gradientTransform="matrix(1 0 0 1 1128 469)">
								<stop  offset="0" style="stop-color:#F7941E"/>
								<stop  offset="0.638" style="stop-color:#F9ED32"/>
								<stop  offset="1" style="stop-color:#F7941E"/>
							</linearGradient>
							<path fill="url(#SVGID_8_)" d="M374.387,820.719c-0.25,0-0.501-0.003-0.754-0.008c-0.372-0.008-0.701-0.017-1.015-0.034
								c-12.78-0.578-22.353-5.628-30.044-9.688c-5.991-3.16-10.319-5.442-15.364-5.54c-0.508-0.012-1.019,0.001-1.515,0.035
								c-4.415,0.292-8.667,2.33-14.05,4.906c-8.16,3.909-18.298,8.774-31.804,8.513c-1.224-0.025-2.444-0.091-3.638-0.195
								c-3.809-0.331-7.578-1.434-11.515-3.375c-6.079-2.995-12.703-8.163-19.698-15.367c-8.024-6.423-16.075-16.407-23.938-29.685
								c-4.22-7.129-7.346-13.466-8.729-16.379c-1.021-1.612-1.866-3.344-2.518-5.16c-7.426-15.114-12.579-30.042-15.319-44.374
								c-3.68-19.248-2.891-36.95,2.346-52.612c3.817-11.431,9.532-22.881,16.524-33.111c4.271-6.254,8.741-11.354,13.665-15.588
								c9.271-7.974,19.538-12.38,31.389-13.472l1.138-0.104l1.146,0.021c2.744,0.053,5.352,0.172,7.879,0.359
								c9.304-8.196,18.922-11.354,20.788-11.912l0.765-0.215c0.187-0.049,0.312-0.083,0.396-0.107
								c0.616-0.494,2.125-2.037,3.248-3.184l1.453-1.479c7.346-7.443,21.158-16.676,35.463-20.531
								c8.396-2.267,15.879-3.299,22.86-3.169c11.756,0.229,22.508,3.75,33.839,11.082c10.234,6.625,19.148,16.282,26.496,28.701
								c1.304,2.202,2.541,4.469,3.696,6.773c5.929,2.345,11.343,5.72,16.451,10.243c4.893,4.343,9.27,9.539,13.39,15.896
								c4.037,6.225,7.63,13.007,10.68,20.16c1.817,3.655,7.115,15.473,8.979,32.162l0.001,0.005
								c1.557,13.992,0.328,27.854-3.649,41.201c-6.935,23.277-13.666,34.929-18.283,40.687
								c-5.855,10.463-12.814,20.818-20.158,29.998c-5.535,6.922-11.146,13.031-16.665,18.154
								C401.688,810.485,390.657,820.718,374.387,820.719z M326.849,775.425c0.316,0,0.634,0.003,0.949,0.008
								c12.164,0.235,20.994,4.896,28.785,9.003c6.076,3.206,11.324,5.977,17.433,6.25l0.231,0.01
								c0.405,0.012,0.823-0.022,1.263-0.094c4.187-0.664,8.928-5.064,12.393-8.277c4.373-4.062,9.092-9.211,13.642-14.899l0,0
								c2.593-3.242,5.127-6.646,7.562-10.162c-2.429-0.188-4.967-0.477-7.744-0.794c-4.938-0.562-10.535-1.204-17.468-1.486
								c-1.198-0.049-2.461-0.087-3.764-0.112c-14.109-0.271-29.654,1.141-47.49,4.319c-29.293,5.223-48.847,12.307-58.11,21.049
								c-1.289,1.216-2.28,2.358-3.129,3.462c3.396,2.961,5.582,4.225,6.561,4.708c0.543,0.267,0.865,0.371,0.982,0.403
								c0.497,0.041,1.007,0.067,1.501,0.078c6.354,0.124,11.854-2.515,18.229-5.566c6.962-3.336,14.854-7.117,25.019-7.789
								C324.724,775.46,325.785,775.425,326.849,775.425z M238.479,738.925l0.328,0.73c0.08,0.18,6.656,14.692,15.386,26.454
								c1.025-1.174,2.197-2.405,3.546-3.677c13.141-12.401,35.577-21.092,70.604-27.338c19.423-3.464,36.515-4.996,52.271-4.691
								c1.425,0.025,2.865,0.067,4.281,0.128c7.871,0.319,14.447,1.076,19.252,1.626l0.169,0.02c3.688,0.42,6.879,0.783,9.369,0.83
								c3.444,0.056,4.96-0.455,6.848-1.577l6.742-4.006c2.514-5.595,4.989-12.477,7.384-20.504
								c2.825-9.479,3.692-19.338,2.582-29.306c-0.056-0.496-0.114-0.984-0.178-1.468c-7.328,5.743-17.843,10.496-31.446,14.205
								c-4.266,1.167-8.943,2.258-13.899,3.235c-13.109,2.59-27.574,4.519-42.89,6.559c-18.071,2.409-36.758,4.9-53.476,8.601
								c-12.866,2.849-23.078,6.077-31.217,9.868c-3.396,1.582-6.455,3.277-9.093,5.044
								C242.47,732.079,239.27,737.158,238.479,738.925z M229.359,740.959L229.359,740.959l8.815-1.979
								c-0.001-0.005-0.001-0.007-0.002-0.01L229.359,740.959z M236.878,648.403c-2.53,4.771-4.662,9.707-6.305,14.625l-0.001,0.002
								c-3.28,9.812-3.666,21.475-1.146,34.659c0.758,3.966,1.771,8.03,3.03,12.174c2.696-2.16,5.688-4.344,8.968-6.539
								c3.695-2.471,7.856-4.789,12.377-6.896c9.773-4.554,21.635-8.341,36.261-11.578c17.725-3.922,36.923-6.479,55.488-8.955
								c14.942-1.99,29.021-3.864,41.421-6.315c4.397-0.868,8.502-1.822,12.193-2.832c18.871-5.146,24.181-10.723,25.432-12.451
								c-2.065-4.608-4.426-8.967-7.025-12.979c-2.323-3.584-4.729-6.49-7.146-8.639c-2.87-2.541-5.674-3.999-9.067-4.709
								l-0.828-0.144c-0.197-0.016-0.651-0.046-1.341-0.061c-1.968-0.039-5.379,0.063-10.444,0.765
								c-7.582,1.05-14.422,3.719-19.533,5.926c-6.485,2.805-14.657,4.979-15.002,5.07l-10.946,2.914
								c-4.158,4.415-9.896,9.066-17.435,14.146c-5.72,3.854-16.561,8.657-27.045,13.3l-0.121,0.056
								c-4.584,2.029-8.915,3.947-11.423,5.197c-5.218,2.604-10.683,3.862-16.204,3.765c-5.863-0.113-11.685-1.782-17.302-4.963
								c-8.047-4.562-12.033-10.42-14.332-14.432C237.436,656.092,236.614,652.308,236.878,648.403z M261.846,649.216
								c0.966,1.293,2.158,2.417,3.944,3.428c2.067,1.175,3.937,1.76,5.719,1.792c1.557,0.025,3.141-0.359,4.815-1.194
								c3.026-1.509,7.437-3.462,12.544-5.727c8.169-3.618,19.357-8.572,23.283-11.221c11.813-7.96,14.913-12.25,15.697-13.725
								c0.047-0.087,0.097-0.182,0.148-0.271c0.376-0.768,0.742-1.528,1.104-2.276c3.858-8.014,8.229-17.084,17.615-17.084
								c0.094,0,0.188,0.002,0.281,0.003c1.371,0.026,2.727,0.271,4.038,0.723c4.077,1.389,7.338,4.253,9.202,8.016
								c6.457-2.758,15.033-5.983,25.148-7.389c0.846-0.116,1.659-0.22,2.444-0.312c-3.746-6.271-9.306-13.602-16.763-18.429
								c-6.693-4.333-11.938-6.147-18.102-6.268c-4.101-0.083-8.84,0.621-14.469,2.139c-8.354,2.252-17.523,8.189-21.909,12.632
								c-0.477,0.483-0.93,0.945-1.363,1.391c-4.756,4.857-8.87,9.062-17.333,11.294c-0.676,0.232-5.396,1.956-9.752,5.897
								c-1.589,1.438-2.904,2.889-4.021,4.43l-0.03,0.042c-1.146,1.586-1.956,3.092-2.814,4.683c-0.769,1.425-1.563,2.9-2.579,4.385
								c-1.139,1.664-2.271,3.131-3.271,4.424c-1.217,1.576-2.267,2.938-3.077,4.305c-1.823,3.083-4.552,7.015-7.293,10.507
								l-0.425,0.541l-0.498,0.475C263.344,647.193,262.443,648.309,261.846,649.216z"/>
						</g>
					</g>
					<g display="inline">
						<g>
							
								<linearGradient id="SVGID_9_" gradientUnits="userSpaceOnUse" x1="-935.8262" y1="261.0552" x2="-750.0543" y2="77.8636" gradientTransform="matrix(1 0 0 1 1128 469)">
								<stop  offset="0" style="stop-color:#F7941E"/>
								<stop  offset="0.638" style="stop-color:#F9ED32"/>
								<stop  offset="1" style="stop-color:#F7941E"/>
							</linearGradient>
							<path fill="url(#SVGID_9_)" d="M291.631,644.218L291.631,644.218l-0.238-0.003c-6.743-0.13-12.124-5.723-11.995-12.469
								c0.127-6.617,5.612-11.999,12.229-11.999l0.24,0.002c6.744,0.132,12.125,5.725,11.994,12.468
								C303.733,638.834,298.247,644.218,291.631,644.218z M291.631,630.458c-0.84,0-1.512,0.657-1.527,1.496
								c-0.017,0.839,0.653,1.537,1.494,1.553l0,0c0.855,0,1.542-0.671,1.558-1.497c0.016-0.84-0.655-1.535-1.497-1.552H291.631
								L291.631,630.458z"/>
						</g>
					</g>
				</g>
				<g display="none">
					<g display="inline">
						<g>
							
								<linearGradient id="SVGID_10_" gradientUnits="userSpaceOnUse" x1="-887.1616" y1="310.3916" x2="-701.4031" y2="127.2133" gradientTransform="matrix(1 0 0 1 1128 469)">
								<stop  offset="0" style="stop-color:#F7941E"/>
								<stop  offset="0.638" style="stop-color:#F9ED32"/>
								<stop  offset="1" style="stop-color:#F7941E"/>
							</linearGradient>
							<path fill="url(#SVGID_10_)" d="M272.969,814.236c-2.141-0.504-4.31-1.304-6.552-2.407
								c-5.723-2.82-12.043-7.787-18.793-14.763c-7.715-6.116-15.521-15.794-23.208-28.776c-4.26-7.196-7.372-13.55-8.666-16.288
								c-0.96-1.479-1.743-3.084-2.333-4.777c-7.327-14.87-12.403-29.534-15.089-43.591c-3.553-18.579-2.809-35.616,2.212-50.636
								c3.704-11.092,9.252-22.208,16.045-32.145c4.077-5.973,8.325-10.822,12.985-14.829c8.635-7.429,18.186-11.53,29.198-12.544
								l0.924-0.086l0.924,0.02c3.28,0.062,6.355,0.222,9.331,0.482c0.221-0.207,0.444-0.412,0.67-0.616
								c8.847-8.009,18.098-11.055,19.862-11.583l0.656-0.185c1.493-0.38,1.582-0.401,5.429-4.334
								c0.462-0.471,0.941-0.961,1.442-1.468c6.976-7.067,20.099-15.838,33.694-19.502c8.041-2.169,15.164-3.162,21.771-3.034
								c11.146,0.214,20.949,3.439,31.793,10.455c9.721,6.294,18.218,15.517,25.253,27.408c1.52,2.567,2.938,5.214,4.237,7.895
								c6.047,2.188,11.526,5.494,16.684,10.062c4.618,4.099,8.772,9.036,12.699,15.096c3.938,6.073,7.44,12.692,10.409,19.673
								c1.683,3.358,6.832,14.724,8.647,30.957v0.001c1.5,13.466,0.316,26.81-3.513,39.656
								c-6.871,23.061-13.402,34.242-17.784,39.605c-5.791,10.379-12.688,20.656-19.966,29.752
								c-5.415,6.771-10.891,12.735-16.271,17.729c-6.297,5.845-16.842,15.631-31.952,15.337c-0.302-0.005-0.597-0.014-0.885-0.029
								c-11.935-0.541-21.077-5.363-28.425-9.239c-6.229-3.284-11.146-5.876-17.113-5.992c-0.627-0.012-1.254,0.003-1.859,0.045
								c-5.153,0.339-9.702,2.52-15.462,5.277c-7.795,3.732-17.479,8.373-30.047,8.131c-1.131-0.023-2.268-0.084-3.378-0.185
								C275.353,814.711,274.164,814.52,272.969,814.236z M254.475,788.33c0.099,0.079,0.197,0.156,0.296,0.232l0.312,0.243
								l0.275,0.284c5.953,6.193,11.327,10.491,15.968,12.779c1.967,0.969,3.77,1.562,5.484,1.804
								c-1.715-0.244-3.516-0.835-5.483-1.804c-5.984-2.949-12.315-8.922-16.576-13.414l-0.189-0.201L254.475,788.33z
								 M279.48,803.877c-0.599-0.023-1.206-0.061-1.812-0.109C278.269,803.816,278.876,803.854,279.48,803.877z M286.082,803.544
								c-1.745,0.24-3.561,0.368-5.456,0.356C282.521,803.912,284.337,803.785,286.082,803.544z M266.208,784.241
								c3.818,3.655,7.298,6.326,10.023,7.67c1.346,0.663,2.052,0.766,2.234,0.783c0.639,0.054,1.27,0.089,1.881,0.101
								c7.302,0.141,13.193-2.681,20.017-5.951c6.644-3.185,14.173-6.789,23.586-7.414c1.234-0.083,2.505-0.112,3.768-0.087
								c11.243,0.219,19.637,4.646,27.042,8.553c6.492,3.427,12.101,6.383,19.079,6.697c0.115,0.007,0.21,0.009,0.305,0.014
								c0.649,0.012,1.319-0.035,1.985-0.143c4.951-0.788,9.466-4.668,14.433-9.273c4.514-4.188,9.366-9.483,14.034-15.322h0.001
								c4.096-5.118,8.042-10.639,11.7-16.34c-0.969,0.047-1.967,0.059-3.004,0.039c-3.507-0.067-7.201-0.49-11.479-0.979
								c-5.008-0.571-10.683-1.22-17.759-1.508c-1.276-0.054-2.57-0.093-3.841-0.116c-14.383-0.279-30.169,1.154-48.26,4.377
								c-30.059,5.361-50.281,12.782-60.107,22.056c-2.644,2.489-4.187,4.735-5.549,6.719
								C266.268,784.152,266.237,784.198,266.208,784.241z M238.441,769.771c4.118,6.193,8.192,11.259,12.186,15.15
								C246.187,780.593,242.045,775.181,238.441,769.771z M313.402,793.162c-2.776,1.073-5.475,2.367-8.242,3.69
								c-0.173,0.084-0.346,0.169-0.518,0.25c0.172-0.084,0.342-0.163,0.513-0.245C307.927,795.531,310.627,794.235,313.402,793.162
								z M395.963,795.302c-4.629,4.184-10.615,8.938-18.092,10.125c-1.312,0.208-2.643,0.302-3.95,0.275
								c-0.201-0.005-0.401-0.01-0.604-0.021c-0.354-0.017-0.702-0.036-1.049-0.062c0.354,0.023,0.709,0.047,1.069,0.062
								c0.198,0.01,0.396,0.017,0.589,0.02C383.279,805.884,390.473,800.271,395.963,795.302z M338.155,792.403
								c3.722,1.29,7.189,3.079,10.741,4.952C345.348,795.483,341.877,793.693,338.155,792.403z M327.984,790.453
								c-0.16-0.005-0.321-0.01-0.484-0.014c-0.94-0.019-1.886,0.005-2.81,0.065c-0.186,0.012-0.37,0.027-0.555,0.042
								c0.182-0.014,0.363-0.028,0.546-0.041c0.915-0.062,1.867-0.085,2.817-0.068C327.662,790.444,327.824,790.448,327.984,790.453
								z M234.363,739.851l0.43,0.408l0.448,0.996c0.091,0.207,8.377,18.508,18.933,31.146c1.48-2.029,3.47-4.507,6.245-7.122
								c12.395-11.696,34.839-20.312,68.612-26.333c19.172-3.418,36.02-4.937,51.506-4.638c1.41,0.028,2.822,0.069,4.195,0.127
								c7.694,0.314,13.944,1.028,18.969,1.604c3.87,0.442,7.196,0.823,9.912,0.875c3.816,0.072,6.149-0.482,8.917-2.125
								l7.793-4.629c2.764-5.963,5.479-13.396,8.081-22.126c2.976-9.982,3.892-20.363,2.722-30.854
								c-0.356-3.185-0.88-6.131-1.479-8.784c-6.512,7.509-18.263,13.606-35.058,18.186c-4.172,1.142-8.761,2.212-13.631,3.173
								c-12.988,2.566-27.397,4.486-42.649,6.521c-18.149,2.42-36.919,4.921-53.801,8.652c-13.149,2.911-23.624,6.23-32.022,10.144
								c-3.576,1.667-6.811,3.462-9.617,5.34c-18.973,12.708-18.558,19.019-18.532,19.281c0.004,0.04,0.013,0.092,0.024,0.145
								l-0.011,0.003h0.001l0.009-0.002C234.361,739.841,234.362,739.844,234.363,739.851z M225.271,746.271l0.167,0.243
								c-0.007-0.012-0.012-0.023-0.018-0.036C225.372,746.413,225.322,746.343,225.271,746.271z M410.784,779.834
								c-2.117,2.54-4.234,4.935-6.341,7.179C406.551,784.769,408.668,782.374,410.784,779.834z M260.094,604.507l-0.309,0.028
								c-8.635,0.795-16.15,4.035-22.976,9.905c-3.915,3.365-7.534,7.513-11.059,12.675c-6.221,9.102-11.298,19.269-14.681,29.398
								c-4.411,13.195-5.029,28.348-1.838,45.035c2.518,13.174,7.329,26.996,14.3,41.083l0.174,0.356l0.116,0.353
								c-0.11-0.338-0.21-0.693-0.294-1.071l10.791-2.428h-0.001l-10.79,2.428c-0.106-0.474-0.185-0.956-0.236-1.437
								c-0.275-2.688,0.248-5.46,1.58-8.333l-1.482-3.574c-4.028-9.71-6.957-19.271-8.706-28.42
								c-3.01-15.741-2.454-29.95,1.652-42.231l0,0c3.223-9.652,8.062-19.346,14-28.029c3.202-4.688,6.6-8.591,10.095-11.596
								c5.832-5.02,12.216-7.815,19.517-8.553l0.338-0.034l0.34,0.008c2.493,0.055,4.91,0.174,7.184,0.356l1.365,0.11
								c0.011-0.098,0.025-0.195,0.04-0.288c0.316-1.811,1.819-4.164,4.739-4.519c0.943-1.107,1.957-2.183,3.056-3.235
								c-0.366,0.352-0.723,0.705-1.065,1.056l-1.891,1.935l-2.687-0.295c-3.461-0.381-7.046-0.604-10.964-0.68L260.094,604.507z
								 M256.107,622.155c-2.987,0.964-5.706,2.558-8.438,4.91c-2.762,2.375-5.51,5.552-8.167,9.441
								c-5.365,7.851-9.734,16.591-12.637,25.282l-0.001,0.002c-3.494,10.455-3.924,22.78-1.275,36.631
								c1.125,5.884,2.789,11.977,4.97,18.193c3.588-3.274,7.946-6.631,13.042-10.043c3.52-2.355,7.506-4.574,11.853-6.602
								c9.507-4.431,21.105-8.128,35.455-11.304c17.566-3.889,36.685-6.435,55.172-8.901c15.017-2.002,29.172-3.887,41.649-6.353
								c4.478-0.885,8.672-1.859,12.469-2.899c21.916-5.973,27.082-12.867,28.145-14.839c0.366-0.679,0.477-1.162,0.506-1.423
								c-2.31-5.375-5-10.441-7.999-15.064c-2.515-3.882-5.146-7.055-7.825-9.433c-3.387-2.997-6.861-4.788-10.937-5.627
								l-1.04-0.182c-0.221-0.022-0.818-0.072-1.785-0.092c-2.106-0.04-5.738,0.065-11.055,0.802
								c-8.052,1.114-15.211,3.902-20.549,6.21c-6.168,2.667-14.109,4.789-14.444,4.878l-12.057,3.208
								c-3.987,4.428-9.74,9.15-17.515,14.389c-5.43,3.662-16.594,8.606-26.445,12.969c-4.698,2.081-9.101,4.033-11.702,5.33
								c-4.651,2.318-9.492,3.445-14.386,3.353c-5.209-0.101-10.409-1.603-15.453-4.458c-7.211-4.085-10.796-9.358-12.866-12.974
								c-6.284-10.938,3.039-21.885,6.518-25.395c2.038-2.644,4.073-5.585,5.351-7.746
								C255.13,623.632,255.616,622.876,256.107,622.155z M432.028,748.882c-0.272,0.484-0.545,0.969-0.823,1.453
								C431.483,749.852,431.756,749.366,432.028,748.882z M437.562,738.774l-4.489,8.22c-0.194,0.354-0.393,0.712-0.589,1.066
								l0.223-0.396l0.352-0.417c1.15-1.362,3.193-4.152,5.778-9.231L437.562,738.774z M451.93,697.815
								c-0.609,4.517-1.574,8.986-2.886,13.389c-0.112,0.381-0.228,0.757-0.341,1.135c0.113-0.375,0.228-0.752,0.341-1.135
								C450.355,706.803,451.318,702.332,451.93,697.815z M257.393,649.548c1.31,2.236,3.032,4.55,6.473,6.5
								c2.646,1.497,5.12,2.248,7.566,2.296c2.211,0.043,4.382-0.481,6.636-1.604c2.948-1.47,7.325-3.408,12.391-5.652
								c8.763-3.881,19.668-8.711,23.878-11.55c11.488-7.74,15.565-12.5,16.965-15.13c0.044-0.086,0.099-0.183,0.151-0.276
								l0.014-0.025c0.4-0.815,0.78-1.607,1.156-2.386c3.717-7.717,7.227-15.005,14.303-14.87c0.947,0.021,1.901,0.189,2.832,0.51
								c3.674,1.251,6.465,4.062,7.65,7.711c0.189,0.583,0.335,1.176,0.438,1.777c1.104-0.399,2.199-0.828,3.211-1.265
								c6.303-2.725,14.826-6.027,24.869-7.42c3.19-0.441,5.926-0.693,8.2-0.827c-3.708-7.332-10.595-18.375-20.929-25.066
								c-7.264-4.697-13.289-6.761-20.153-6.895c-4.479-0.087-9.569,0.657-15.562,2.271c-9.019,2.432-18.928,8.853-23.672,13.661
								c-0.48,0.485-0.937,0.951-1.375,1.399c-4.727,4.831-8.149,8.331-15.644,10.279c-0.653,0.217-6.171,2.135-11.271,6.752
								c-1.792,1.622-3.284,3.268-4.562,5.03l-0.049,0.064c-1.287,1.789-2.194,3.472-3.073,5.101
								c-0.754,1.397-1.465,2.72-2.364,4.033c-1.074,1.57-2.124,2.932-3.139,4.244c-1.295,1.675-2.413,3.125-3.344,4.696
								c-1.718,2.899-4.402,6.768-7.005,10.085l-0.25,0.315l-0.292,0.278C259.488,645.47,257.563,648.319,257.393,649.548z
								 M444.168,647.889l0.172,0.299c0.243,0.454,5.982,11.319,7.818,27.763c0.124,1.106,0.228,2.215,0.311,3.319
								c-0.083-1.104-0.187-2.21-0.311-3.317c-1.68-15.051-6.629-25.42-7.604-27.345l-0.157-0.344
								c-2.732-6.449-5.955-12.552-9.575-18.135c-3.376-5.21-6.893-9.405-10.748-12.828c-4.609-4.082-9.502-6.878-14.957-8.546
								l-2.388-0.73l-1.038-2.274c-1.403-3.077-2.994-6.125-4.729-9.057c-6.152-10.401-13.466-18.392-21.73-23.742
								c-2.773-1.794-5.455-3.291-8.098-4.506c2.643,1.216,5.321,2.711,8.096,4.506c19.317,12.508,28.063,36.438,28.656,38.114
								l0.072,0.214l1.05,3.294c4.094,1.479,7.847,3.752,11.379,6.879c3.435,3.045,6.723,6.979,9.778,11.7
								c3.482,5.369,6.583,11.255,9.213,17.49l0.065,0.157L444.168,647.889z M346.88,618.608c-1.196,1.634-2.799,4.906-4.011,7.421
								l3.025-4.312l4.416,3.104l0,0l-4.412-3.108C346.85,620.361,347.031,619.245,346.88,618.608z M283.804,597.123
								c-1.853,1.195-3.812,2.646-5.734,4.385c-0.092,0.085-0.185,0.167-0.276,0.252c0.092-0.085,0.185-0.167,0.276-0.252
								C279.99,599.769,281.951,598.318,283.804,597.123z M293.781,592.297L293.781,592.297l0.108-0.028
								c4.588-1.171,6.352-2.973,10.611-7.325c0.092-0.096,0.186-0.189,0.279-0.286c-0.095,0.097-0.188,0.191-0.28,0.288
								c-4.26,4.352-6.022,6.151-10.61,7.323L293.781,592.297z M306.178,583.239c-0.091,0.09-0.181,0.181-0.271,0.27
								c-0.044,0.045-0.088,0.091-0.132,0.136c0.043-0.046,0.088-0.092,0.134-0.137C305.998,583.419,306.087,583.33,306.178,583.239
								z M360.225,564.954c-2.278-0.411-4.59-0.633-6.967-0.679c-5.084-0.1-10.64,0.624-16.938,2.202
								c6.298-1.577,11.854-2.301,16.938-2.201C355.633,564.32,357.945,564.543,360.225,564.954z"/>
						</g>
					</g>
					<g display="inline">
						<g>
							
								<linearGradient id="SVGID_11_" gradientUnits="userSpaceOnUse" x1="-935.8247" y1="261.0552" x2="-750.0546" y2="77.8651" gradientTransform="matrix(1 0 0 1 1128 469)">
								<stop  offset="0" style="stop-color:#F7941E"/>
								<stop  offset="0.638" style="stop-color:#F9ED32"/>
								<stop  offset="1" style="stop-color:#F7941E"/>
							</linearGradient>
							<path fill="url(#SVGID_11_)" d="M289.5,640.976L289.5,640.976c-4.203-0.991-7.191-4.851-7.107-9.172
								c0.048-2.468,1.051-4.77,2.829-6.479c1.778-1.711,4.117-2.627,6.585-2.58c0.658,0.014,1.314,0.096,1.95,0.246
								c4.203,0.993,7.193,4.849,7.11,9.172c-0.048,2.468-1.055,4.769-2.833,6.479c-1.778,1.711-4.117,2.628-6.584,2.58
								C290.792,641.209,290.136,641.126,289.5,640.976z M291.971,630.553c-0.101-0.022-0.206-0.038-0.313-0.04
								c-0.529-0.01-0.883,0.252-1.046,0.41c-0.164,0.157-0.438,0.5-0.45,1.03c-0.013,0.688,0.46,1.302,1.124,1.459h0.001
								c0.101,0.021,0.206,0.037,0.314,0.04c0.528,0.009,0.882-0.253,1.047-0.41c0.162-0.159,0.439-0.502,0.449-1.032
								C293.112,631.231,292.542,630.688,291.971,630.553z"/>
						</g>
					</g>
				</g>
				<g display="none">
					<g display="inline">
						<g>
							
								<linearGradient id="SVGID_12_" gradientUnits="userSpaceOnUse" x1="-887.1592" y1="310.395" x2="-701.3997" y2="127.2156" gradientTransform="matrix(1 0 0 1 1128 469)">
								<stop  offset="0" style="stop-color:#F7941E"/>
								<stop  offset="0.638" style="stop-color:#F9ED32"/>
								<stop  offset="1" style="stop-color:#F7941E"/>
							</linearGradient>
							<path fill="url(#SVGID_12_)" d="M273.607,811.535c-1.938-0.457-3.912-1.188-5.964-2.197
								c-5.471-2.696-11.577-7.519-18.152-14.334c-7.493-5.896-15.125-15.357-22.687-28.128c-4.295-7.254-7.406-13.639-8.628-16.232
								c-0.914-1.379-1.65-2.889-2.194-4.484c-7.257-14.704-12.28-29.185-14.929-43.044c-3.463-18.105-2.75-34.672,2.118-49.235
								c3.624-10.853,9.055-21.729,15.703-31.458c3.94-5.77,8.03-10.445,12.506-14.292c8.181-7.038,17.224-10.924,27.643-11.884
								l0.923-0.067l0.617,0.014c3.675,0.069,7.087,0.264,10.384,0.588c0.495-0.483,1.008-0.966,1.533-1.439
								c8.58-7.769,17.775-10.675,18.796-10.979l0.55-0.152c2.18-0.557,2.619-0.889,6.722-5.082c0.458-0.469,0.937-0.956,1.434-1.46
								c6.495-6.581,19.419-15.261,32.442-18.771c7.785-2.101,14.652-3.062,20.995-2.938c10.601,0.205,19.955,3.293,30.336,10.01
								c9.358,6.061,17.56,14.973,24.373,26.493c1.674,2.829,3.226,5.758,4.62,8.722c6.138,2.058,11.66,5.302,16.848,9.897
								c4.433,3.929,8.424,8.68,12.214,14.526c3.863,5.962,7.306,12.468,10.22,19.332c1.578,3.138,6.631,14.183,8.405,30.099l0,0
								c1.459,13.095,0.312,26.063-3.411,38.555c-7.166,24.053-13.928,34.604-17.428,38.826
								c-5.743,10.323-12.596,20.551-19.829,29.591c-5.33,6.665-10.711,12.528-15.993,17.428c-6.38,5.922-16.021,14.869-30.012,14.6
								c-0.271-0.005-0.544-0.016-0.808-0.025c-11.318-0.514-19.787-4.979-27.261-8.926c-6.557-3.457-11.727-6.186-18.354-6.312
								c-0.708-0.013-1.417,0.004-2.104,0.052c-5.68,0.375-10.681,2.771-16.47,5.545c-7.922,3.794-16.886,8.089-28.795,7.857
								c-1.067-0.021-2.139-0.079-3.188-0.173C275.73,811.958,274.675,811.788,273.607,811.535z M259.992,601.729l-0.461,0.044
								c-9.229,0.85-17.254,4.305-24.531,10.563c-4.103,3.527-7.878,7.85-11.542,13.214c-6.363,9.312-11.557,19.713-15.021,30.085
								c-4.564,13.652-5.214,29.275-1.931,46.438c2.563,13.42,7.456,27.479,14.536,41.795l0.088,0.176l0.062,0.188
								c0.41,1.251,0.983,2.42,1.701,3.479l0.124,0.184l0.093,0.196c1.121,2.389,4.188,8.725,8.47,15.955
								c7.26,12.263,14.488,21.247,21.482,26.706l0.155,0.119l0.138,0.145c6.179,6.427,11.812,10.915,16.741,13.345
								c2.55,1.256,4.895,1.962,7.17,2.158c0.929,0.081,1.873,0.135,2.812,0.15c10.592,0.205,18.925-3.788,26.276-7.308
								c6.32-3.027,11.769-5.641,18.509-6.082c0.842-0.059,1.713-0.079,2.583-0.064c7.948,0.158,14.202,3.455,20.827,6.947
								c6.967,3.678,14.853,7.841,24.937,8.296c0.22,0.01,0.44,0.016,0.661,0.021c11.747,0.229,20.4-7.806,26.125-13.118
								c5.083-4.713,10.275-10.374,15.435-16.827c7.1-8.869,13.818-18.913,19.438-29.047l0.131-0.238l0.177-0.207
								c3.165-3.746,9.523-13.542,16.525-37.043c3.509-11.771,4.591-24.003,3.214-36.354c-1.689-15.14-6.462-25.482-7.886-28.292
								l-0.078-0.171c-2.798-6.601-6.095-12.847-9.802-18.562c-3.516-5.422-7.189-9.804-11.237-13.394
								c-4.913-4.354-10.144-7.337-15.984-9.125l-1.193-0.365l-0.521-1.138c-1.441-3.168-3.081-6.304-4.865-9.318
								c-6.373-10.774-13.98-19.071-22.609-24.658c-9.465-6.124-17.924-8.937-27.43-9.121c-5.811-0.11-12.17,0.787-19.44,2.75
								c-12.028,3.241-23.95,11.245-29.937,17.312c-0.492,0.499-0.964,0.979-1.418,1.441c-4.097,4.188-5.478,5.6-9.312,6.577
								l-0.331,0.093c-0.898,0.271-8.988,2.828-16.665,9.778c-0.786,0.713-1.543,1.44-2.248,2.163l-0.945,0.966l-1.344-0.146
								c-3.543-0.391-7.212-0.617-11.213-0.694L259.992,601.729z M276.185,800.731c-1.133-0.269-2.35-0.721-3.634-1.353
								c-4.443-2.188-9.902-6.628-15.786-12.834l-2.006-2.116l2.212-1.898c0.063-0.056,0.127-0.112,0.191-0.173
								c-0.064,0.059-0.127,0.116-0.19,0.171l-2.565,2.202l-1.817-1.771c-12.879-12.544-23.272-34.639-24.774-37.919
								c-0.484-0.606-1.207-1.729-1.578-3.38l5.417-1.218c0.14,0.624,0.385,0.986,0.476,1.104l0.476,0.385l0.103,0.458
								c0.103,0.227,9.763,21.581,21.715,34.494c0.153-0.222,0.303-0.438,0.433-0.63c1.589-2.308,3.753-5.456,7.469-8.958
								c11.989-11.314,33.969-19.695,67.194-25.622c18.989-3.384,35.662-4.888,50.965-4.592c1.391,0.027,2.783,0.069,4.139,0.126
								c7.593,0.309,13.787,1.018,18.765,1.587c3.941,0.45,7.326,0.836,10.172,0.894c4.35,0.084,7.165-0.6,10.392-2.517l8.524-5.062
								c2.948-6.217,5.839-14.044,8.593-23.287c3.083-10.338,4.028-21.09,2.817-31.953c-0.657-5.899-1.875-11.009-3.104-15.029
								c-4.702,9.243-17.121,16.664-36.92,22.061c-4.11,1.127-8.634,2.177-13.438,3.127c-12.902,2.55-27.27,4.465-42.479,6.492
								c-18.209,2.427-37.038,4.935-54.033,8.694c-13.349,2.956-24.01,6.336-32.594,10.335c-3.705,1.727-7.065,3.594-9.989,5.551
								c-18.572,12.439-19.998,19.44-19.75,21.87c0.017,0.155,0.043,0.312,0.078,0.472l-5.416,1.218
								c-0.082-0.368-0.144-0.744-0.183-1.115c-0.354-3.439,0.992-7.191,4.014-11.234l-2.308,2.908l-1.807-4.354
								c-3.956-9.536-6.83-18.915-8.544-27.877c-2.92-15.271-2.396-29.011,1.56-40.835l-0.001,0.001
								c0.001-0.001,0.001-0.001,0.001-0.001c3.142-9.41,7.865-18.865,13.658-27.341c3.066-4.49,6.301-8.212,9.612-11.059
								c5.463-4.699,11.178-7.208,17.986-7.896l0.34-0.015c2.438,0.056,4.8,0.171,7.019,0.353l4.275,0.346
								c0.158-0.272,0.321-0.552,0.493-0.836c-0.575-0.917-0.407-1.96-0.403-1.977c0.045-0.269,0.52-2.509,3.212-2.242l0.004-0.014
								l0.111,0.02c1.365-1.712,2.9-3.335,4.656-4.924c6.889-6.238,14.223-8.484,14.532-8.577l0.11-0.032
								c5.342-1.363,7.536-3.604,11.909-8.074c0.446-0.455,0.912-0.932,1.399-1.426c5.651-5.725,16.89-13.008,27.431-15.85
								c6.763-1.823,12.612-2.66,17.892-2.56c8.409,0.163,15.972,2.701,24.519,8.229c18.658,12.082,27.08,35.384,27.555,36.729
								l0.037,0.112l1.363,4.278l-4.416-0.69l1.412,0.247c5.601,1.141,10.322,3.544,14.872,7.574
								c3.243,2.877,6.369,6.622,9.291,11.131c3.396,5.231,6.418,10.974,8.982,17.062l0.062,0.148l2.682-1.146l2.241-1.378
								l0.088,0.149c0.231,0.435,5.729,10.842,7.509,26.76c1.293,11.605,0.277,23.098-3.02,34.155
								c-2.948,9.902-6.068,18.268-9.272,24.868l-0.363,0.749l-1.257,0.748l-4.854,8.887c-5.597,10.253-12.353,20.42-19.538,29.403
								v-0.001c-4.92,6.15-10.063,11.765-14.872,16.226c-4.613,4.282-10.934,10.145-18.787,11.396
								c-1.151,0.183-2.315,0.264-3.459,0.241c-0.176-0.004-0.353-0.011-0.525-0.019c-8.829-0.397-15.82-4.085-22.578-7.651
								c-7.227-3.812-14.05-7.411-23.319-7.592c-1.021-0.021-2.048,0.003-3.051,0.072c-7.815,0.516-13.997,3.479-20.542,6.613
								c-7.129,3.414-14.498,6.945-23.776,6.768c-0.799-0.015-1.62-0.059-2.439-0.131
								C277.243,800.944,276.724,800.858,276.185,800.731z M262.574,784.562c4.688,4.715,9.05,8.173,12.431,9.838
								c1.586,0.779,2.627,1.008,3.22,1.058c0.7,0.062,1.395,0.097,2.068,0.111c7.96,0.151,14.424-2.943,21.27-6.225
								c6.73-3.225,13.689-6.56,22.57-7.146c1.158-0.079,2.349-0.107,3.53-0.084c10.585,0.202,18.319,4.287,25.8,8.229
								c6.504,3.435,12.646,6.677,20.25,7.02c0.131,0.007,0.252,0.01,0.372,0.014c0.817,0.015,1.651-0.042,2.478-0.175
								c6.189-0.984,11.793-6.187,15.888-9.981c4.609-4.278,9.561-9.682,14.312-15.623l0.001-0.001
								c5.354-6.688,10.459-14.059,15.005-21.625c-2.571,0.618-5.315,0.875-8.422,0.814c-3.376-0.065-7.011-0.48-11.22-0.962
								c-5.054-0.576-10.78-1.231-17.957-1.525c-1.3-0.05-2.612-0.091-3.899-0.116c-14.565-0.28-30.529,1.164-48.803,4.423
								c-31.03,5.532-51.156,12.979-61.525,22.768c-2.857,2.692-4.562,5.17-5.931,7.164
								C263.517,783.257,263.05,783.934,262.574,784.562z M260.035,778.525c-0.209,0.301-0.408,0.59-0.598,0.865
								c-0.656,0.954-1.168,1.688-1.632,2.258c0.497-0.604,1.023-1.371,1.63-2.256C259.629,779.112,259.827,778.821,260.035,778.525
								z M269.48,768.481c-1.201,0.929-2.317,1.881-3.349,2.854c-0.188,0.178-0.374,0.354-0.555,0.532
								c0.182-0.178,0.366-0.354,0.557-0.532C267.164,770.36,268.279,769.41,269.48,768.481z M260.617,618.398
								c-5.551,0.592-10.244,2.68-14.758,6.562c-2.945,2.533-5.855,5.891-8.647,9.981c-5.51,8.059-9.997,17.039-12.979,25.969v0.001
								c-3.649,10.914-4.109,23.709-1.371,38.032c1.394,7.292,3.597,14.887,6.561,22.634c3.925-4.068,9.194-8.326,15.724-12.698
								c3.398-2.276,7.261-4.426,11.479-6.39c9.322-4.346,20.733-7.979,34.884-11.111c17.448-3.862,36.508-6.401,54.938-8.859
								c15.062-2.007,29.259-3.898,41.819-6.381c4.543-0.897,8.804-1.89,12.663-2.944c22.353-6.093,28.323-13.356,29.854-16.198
								c0.958-1.777,0.877-2.989,0.822-3.343c-2.418-5.703-5.254-11.076-8.431-15.973c-2.648-4.092-5.446-7.455-8.313-9.998
								c-3.776-3.346-7.688-5.345-12.26-6.278l-1.174-0.203c-0.206-0.024-0.91-0.092-2.113-0.117
								c-2.209-0.041-5.996,0.065-11.489,0.826c-8.382,1.163-15.771,4.037-21.269,6.412c-5.982,2.587-13.729,4.655-14.058,4.741
								l-12.87,3.428c-3.838,4.426-9.588,9.193-17.541,14.554c-5.227,3.523-16.271,8.417-26.018,12.732
								c-4.729,2.096-9.158,4.058-11.816,5.382c-4.246,2.118-8.652,3.146-13.095,3.061c-4.743-0.091-9.5-1.47-14.138-4.097
								c-6.542-3.705-9.758-8.325-11.826-11.938c-5.387-9.375,3.197-19.185,6.197-22.18c2.142-2.763,4.298-5.879,5.651-8.168
								c1.368-2.306,2.855-4.233,4.294-6.097c0.332-0.431,0.664-0.858,0.993-1.292C261.768,618.428,261.195,618.411,260.617,618.398
								z M249.673,712.556c-0.49,0.311-0.969,0.622-1.438,0.936c-0.331,0.222-0.657,0.441-0.98,0.664
								c0.324-0.222,0.65-0.444,0.981-0.664C248.706,713.176,249.185,712.865,249.673,712.556z M385.127,742.789
								c-0.243-0.012-0.486-0.023-0.732-0.034c-1.314-0.052-2.668-0.094-4.02-0.119c-2.314-0.045-4.666-0.049-7.055-0.007
								c2.389-0.042,4.738-0.039,7.056,0.007c1.327,0.025,2.681,0.065,4.019,0.119C384.641,742.765,384.884,742.777,385.127,742.789
								z M432.628,738.475l-5.846,3.474c-4.109,2.44-7.974,3.396-13.33,3.291c-1.589-0.03-3.283-0.149-5.104-0.322
								c1.82,0.173,3.517,0.292,5.104,0.322c5.355,0.104,9.221-0.85,13.329-3.289L432.628,738.475z M268.835,703.492
								c-3.545,1.271-6.825,2.611-9.865,4.029c-0.447,0.205-0.89,0.416-1.327,0.63c0.438-0.214,0.88-0.423,1.327-0.63
								C262.01,706.104,265.289,704.764,268.835,703.492z M311.304,693.221c-4.711,0.794-9.362,1.648-13.91,2.58
								C301.942,694.867,306.593,694.015,311.304,693.221z M359.918,686.306c-4.156,0.573-8.396,1.141-12.709,1.711
								c-2.225,0.299-4.459,0.597-6.698,0.897c2.239-0.302,4.474-0.6,6.696-0.896C351.518,687.444,355.761,686.878,359.918,686.306z
								 M255.557,637.699l-0.129,0.127c-1.532,1.51-8.996,9.361-5.414,15.595c1.719,2.999,4.379,6.828,9.747,9.871
								c0.155,0.086,0.312,0.172,0.464,0.255c-0.153-0.083-0.308-0.169-0.463-0.256c-5.369-3.042-8.028-6.871-9.745-9.868
								c-3.626-6.307,4.046-14.266,5.535-15.719C255.554,637.703,255.554,637.701,255.557,637.699z M278.652,613.222
								c-1.39,1.933-2.34,3.692-3.258,5.396c-0.719,1.332-1.396,2.59-2.214,3.784c-1.028,1.504-2.054,2.831-3.044,4.113
								c-1.294,1.677-2.517,3.261-3.533,4.977c-1.662,2.809-4.269,6.562-6.801,9.79l-0.125,0.157l-0.146,0.14
								c-2.683,2.562-5.812,7.148-4.7,9.082c1.452,2.534,3.495,5.438,7.668,7.801c3.056,1.731,5.96,2.6,8.881,2.657
								c2.633,0.05,5.3-0.586,7.928-1.897c2.891-1.44,7.45-3.46,12.275-5.597c8.863-3.926,19.892-8.812,24.307-11.787
								c9.604-6.471,15.613-11.896,17.862-16.129c0.037-0.07,0.079-0.146,0.121-0.219l0.061-0.108
								c0.406-0.831,0.805-1.653,1.189-2.459c3.464-7.188,6.456-13.398,11.748-13.298c0.661,0.012,1.329,0.133,1.986,0.358
								c2.843,0.968,4.996,3.134,5.91,5.942c0.494,1.517,0.604,3.141,0.354,4.779c2.241-0.719,4.819-1.62,7.033-2.577
								c6.144-2.653,14.438-5.871,24.149-7.218c5.418-0.749,9.465-0.938,12.14-0.938c-3.119-6.985-10.859-21.693-23.74-30.034
								c-7.729-5.002-14.192-7.195-21.606-7.341c-4.746-0.091-10.091,0.686-16.341,2.369c-9.588,2.584-19.796,9.196-24.925,14.392
								c-0.481,0.487-0.939,0.957-1.381,1.407c-4.594,4.695-7.635,7.803-14.433,9.554c-0.544,0.174-6.684,2.222-12.361,7.361
								c-1.938,1.752-3.556,3.539-4.948,5.46L278.652,613.222z M399.218,679.382c-1.563,0.395-3.184,0.776-4.846,1.146
								C396.035,680.158,397.652,679.775,399.218,679.382z M435.62,659.726c-2.744,5.008-10.219,12.037-30.07,17.927
								C425.254,671.808,432.817,664.844,435.62,659.726z M324.495,642.56c-1.004,0.746-2.062,1.507-3.168,2.279
								C322.435,644.065,323.491,643.306,324.495,642.56z M262.023,628.336c-0.067,0.109-0.132,0.22-0.198,0.33
								c-0.068,0.115-0.138,0.231-0.208,0.348c0.071-0.116,0.141-0.233,0.208-0.35C261.892,628.553,261.957,628.445,262.023,628.336
								z M269.873,617.155l-0.087,0.155c-0.458,0.823-0.825,1.429-1.186,1.956c-0.881,1.288-1.793,2.479-2.68,3.628
								c0.887-1.15,1.799-2.341,2.678-3.625C269.039,618.626,269.446,617.926,269.873,617.155z M436.395,658.068
								c-0.128,0.331-0.273,0.672-0.443,1.021C436.119,658.741,436.267,658.399,436.395,658.068z M346.932,615.197
								c-0.062-0.016-0.117-0.021-0.168-0.022c-1.729-0.034-4.686,6.101-6.64,10.157c-0.394,0.818-0.796,1.651-1.207,2.491
								c-0.06,0.121-0.132,0.253-0.205,0.385l-0.057,0.104c-0.595,1.117-1.366,2.273-2.318,3.474l0.173-0.207l9.162-2.439
								l-1.962,0.522l4.456-6.347l2.145,1.508h0.002l-2.145-1.511c1.376-1.953,1.857-4.02,1.32-5.666
								c-0.379-1.163-1.217-1.995-2.426-2.408C347.018,615.22,346.973,615.208,346.932,615.197z M436.891,651.896l0.042,0.144
								c0.066,0.235,0.162,0.649,0.218,1.212C437.078,652.489,436.929,652.01,436.891,651.896z M402.214,615.702
								c-0.165-0.022-1.096-0.135-2.789-0.168c-2.408-0.047-6.506,0.065-12.356,0.876c-6.271,0.87-11.965,2.601-16.807,4.418
								c4.842-1.817,10.534-3.549,16.805-4.418c5.853-0.811,9.949-0.924,12.358-0.876c1.58,0.03,2.506,0.133,2.752,0.163
								L402.214,615.702z"/>
						</g>
					</g>
					<g display="inline">
						<g>
							
								<linearGradient id="SVGID_13_" gradientUnits="userSpaceOnUse" x1="-935.8091" y1="261.0386" x2="-750.0663" y2="77.8758" gradientTransform="matrix(1 0 0 1 1128 469)">
								<stop  offset="0" style="stop-color:#F7941E"/>
								<stop  offset="0.638" style="stop-color:#F9ED32"/>
								<stop  offset="1" style="stop-color:#F7941E"/>
							</linearGradient>
							<path fill="url(#SVGID_13_)" d="M290.074,638.545C290.073,638.546,290.073,638.546,290.074,638.545
								c-3.066-0.724-5.246-3.538-5.185-6.693c0.033-1.8,0.767-3.479,2.064-4.729c1.298-1.248,3.004-1.917,4.805-1.882
								c0.48,0.009,0.96,0.067,1.424,0.18c3.067,0.724,5.248,3.537,5.188,6.692c-0.036,1.801-0.771,3.479-2.067,4.728
								c-1.298,1.249-3.005,1.918-4.805,1.883C291.018,638.714,290.538,638.654,290.074,638.545z M292.546,628.122
								c-0.273-0.064-0.558-0.101-0.841-0.104c-1.06-0.021-2.063,0.371-2.826,1.105c-0.764,0.734-1.194,1.723-1.215,2.784
								c-0.036,1.854,1.246,3.511,3.047,3.937c0,0,0,0,0.002,0.001c0.271,0.064,0.555,0.1,0.839,0.104
								c1.059,0.02,2.063-0.373,2.826-1.107c0.765-0.736,1.197-1.724,1.216-2.784C295.63,630.203,294.349,628.548,292.546,628.122z"
								/>
						</g>
					</g>
				</g>
				<g>
					<g>
						<g>
							
								<linearGradient id="SVGID_14_" gradientUnits="userSpaceOnUse" x1="-887.1587" y1="310.3921" x2="-701.3979" y2="127.2116" gradientTransform="matrix(1 0 0 1 1128 469)">
								<stop  offset="0" style="stop-color:#F7941E"/>
								<stop  offset="0.638" style="stop-color:#F9ED32"/>
								<stop  offset="1" style="stop-color:#F7941E"/>
							</linearGradient>
							<path fill="url(#SVGID_14_)" d="M457.677,675.335c-1.758-15.734-6.815-26.57-8.168-29.238
								c-2.858-6.749-6.231-13.136-10.027-18.987c-3.65-5.636-7.486-10.201-11.726-13.96c-5.188-4.599-10.797-7.802-17.015-9.704
								c-1.2-2.63-2.856-5.955-5.002-9.579c-6.595-11.149-14.499-19.753-23.493-25.576c-9.923-6.422-18.83-9.371-28.881-9.565
								c-6.074-0.116-12.69,0.812-20.221,2.846c-12.523,3.375-24.946,11.718-31.188,18.041c-0.495,0.501-0.97,0.984-1.426,1.451
								c-4.153,4.244-5.029,5.065-8.017,5.828l-0.223,0.059l-0.219,0.064c-0.959,0.287-9.604,3.021-17.731,10.38
								c-0.828,0.75-1.617,1.509-2.371,2.278c-3.614-0.396-7.408-0.632-11.463-0.71l-0.617-0.012l-0.613,0.056
								c-9.824,0.904-18.357,4.575-26.088,11.227c-4.287,3.687-8.221,8.185-12.023,13.753c-6.506,9.517-11.818,20.159-15.362,30.771
								c-4.716,14.105-5.396,30.201-2.025,47.835c2.613,13.673,7.584,27.97,14.777,42.505c0.561,1.715,1.316,3.106,2.042,4.176
								c1.205,2.564,4.288,8.914,8.596,16.188c7.439,12.567,14.89,21.803,22.161,27.479c6.403,6.659,12.293,11.336,17.516,13.908
								c2.865,1.413,5.534,2.209,8.158,2.437c0.987,0.087,1.999,0.142,2.995,0.162c11.253,0.216,19.903-3.93,27.533-7.584
								c6.053-2.899,11.279-5.403,17.489-5.813c0.781-0.054,1.563-0.071,2.347-0.057c7.292,0.141,12.993,3.148,19.596,6.631
								c7.214,3.809,15.393,8.123,26.098,8.607c0.236,0.012,0.482,0.019,0.729,0.021c12.869,0.249,22.019-8.242,28.069-13.855
								c5.183-4.808,10.468-10.568,15.712-17.129c7.207-9.009,14.001-19.161,19.698-29.438c3.317-3.923,9.926-14.072,17.067-38.042
								C457.979,700.659,459.093,688.058,457.677,675.335z M221.601,660.031c3.062-9.17,7.668-18.389,13.318-26.653
								c2.93-4.292,6.002-7.833,9.132-10.521c5.003-4.308,10.24-6.609,16.454-7.238c2.393,0.051,4.671,0.165,6.855,0.342
								c-0.359,0.647-0.703,1.229-1.052,1.74c-0.894,1.307-1.845,2.538-2.764,3.729c-1.39,1.803-2.827,3.66-4.107,5.822
								c-1.442,2.439-3.708,5.704-5.959,8.599c-2.383,2.35-10.378,11.114-5.871,18.956c1.894,3.306,4.831,7.527,10.786,10.901
								c4.232,2.397,8.546,3.655,12.824,3.737c3.989,0.077,7.961-0.855,11.802-2.771c2.724-1.354,7.196-3.336,11.932-5.434
								c9.64-4.271,20.567-9.111,25.591-12.497c8.097-5.455,13.89-10.312,17.538-14.711l13.71-3.649
								c0.319-0.085,7.901-2.114,13.669-4.606c5.66-2.445,13.271-5.405,21.989-6.613c5.674-0.785,9.614-0.897,11.922-0.853
								c1.497,0.027,2.317,0.123,2.463,0.144l1.289,0.224c5.09,1.035,9.438,3.26,13.584,6.933c3.053,2.71,6.015,6.263,8.802,10.562
								c3.307,5.097,6.252,10.691,8.754,16.629c0.096,0.328,0.605,2.474-1.029,5.513c-2.114,3.92-9.022,11.415-31.566,17.561
								c-3.922,1.073-8.249,2.078-12.857,2.988c-12.646,2.5-26.89,4.397-41.966,6.408c-18.383,2.449-37.391,4.981-54.733,8.818
								c-13.949,3.087-25.174,6.66-34.311,10.918c-4.089,1.905-7.824,3.983-11.106,6.18c-8.197,5.489-14.302,10.736-18.174,15.617
								c-3.889-9.376-6.696-18.528-8.381-27.337C217.307,684.668,217.8,671.402,221.601,660.031z M350.438,624.91
								c3.695-5.248,2.076-10.749-2.479-12.301c-0.395-0.137-0.771-0.203-1.143-0.211c-3.959-0.076-6.768,6.81-10.394,14.2
								c-0.063,0.138-0.149,0.276-0.223,0.412l0,0c-2.914,5.48-10.634,11.65-18.761,17.127
								c-7.056,4.758-28.691,13.479-36.896,17.569c-3.322,1.655-6.42,2.24-9.219,2.188c-4.114-0.081-7.588-1.54-10.196-3.019
								c-4.382-2.482-6.822-5.547-8.704-8.832c-2.802-4.875,5.193-12.476,5.193-12.476c2.246-2.862,4.852-6.539,6.598-9.492
								c1.904-3.211,4.331-5.816,6.674-9.24c1.733-2.537,2.92-5.661,5.572-9.322l0,0c0,0-4.004-0.697,0.001,0
								c1.326-1.831,3.019-3.796,5.332-5.892c6.503-5.89,13.466-7.977,13.466-7.977c6.702-1.711,9.23-4.805,14.599-10.237
								c5.366-5.438,16.055-12.394,26.178-15.121c6.51-1.756,12.066-2.562,17.115-2.463c8.396,0.162,15.397,2.827,23.061,7.783
								c18.143,11.746,26.297,34.896,26.454,35.345c0,0.005,0.002,0.01,0.002,0.01s-1.045-0.164-3.192-0.206
								c-2.604-0.048-6.836,0.081-12.789,0.904c-9.806,1.358-18.219,4.765-23.428,7.016c-5.462,2.361-12.896,4.34-12.896,4.34
								C350.391,624.981,350.411,624.945,350.438,624.91 M408.93,773.333c-4.987,6.237-9.97,11.634-14.595,15.923
								c-4.954,4.598-10.576,9.613-17.337,10.688c-0.964,0.151-1.953,0.227-2.967,0.208c-0.146-0.003-0.297-0.011-0.444-0.017
								c-17.13-0.772-26.892-14.877-45.979-15.247c-1.128-0.021-2.224,0.005-3.294,0.079c-17.325,1.146-27.447,13.696-44.075,13.375
								c-0.738-0.017-1.489-0.057-2.254-0.123c-1.227-0.105-2.643-0.562-4.208-1.333c-4.148-2.044-9.369-6.314-14.998-12.252
								c2.438-2.094,3.941-6.271,9.257-11.282c7.796-7.355,23.792-16.501,62.944-23.48c21.396-3.813,37.186-4.698,49.342-4.465
								c1.363,0.027,2.683,0.067,3.959,0.119c13.332,0.546,21.974,2.347,29.117,2.484c5.324,0.104,9.817-0.721,14.802-3.68
								C422.347,755.057,415.636,764.95,408.93,773.333z M228.944,741.053c-0.056-0.249-0.101-0.512-0.131-0.796
								c-0.412-4.031,2.289-11.951,20.967-24.461c3.14-2.102,6.613-4.013,10.359-5.758c9.56-4.455,20.908-7.816,33.168-10.53
								c31.113-6.883,68.087-9.572,96.576-15.201c4.867-0.962,9.271-1.994,13.245-3.082c44.031-12.001,36.312-30.425,36.312-30.425
								s0.003,0.005,0.005,0.008l0,0c0.102,0.19,5.472,10.31,7.194,25.759c1.048,9.396,0.746,20.758-2.919,33.055
								c-3.373,11.323-6.531,19.14-9.109,24.448l-9.247,5.493c-3.674,2.183-6.999,2.996-11.86,2.902
								c-2.979-0.057-6.435-0.454-10.436-0.909c-4.938-0.564-11.081-1.268-18.562-1.572c-1.348-0.057-2.719-0.098-4.076-0.121
								c-15.119-0.292-31.613,1.192-50.425,4.548c-32.677,5.827-54.193,13.975-65.779,24.91c-3.501,3.297-5.567,6.304-7.077,8.499
								c-0.775,1.127-1.506,2.192-1.987,2.604l-0.637,0.548c-13.417-13.066-24.35-37.442-24.35-37.442
								S229.317,742.711,228.944,741.053"/>
						</g>
					</g>
					<g>
						<g>
							
								<linearGradient id="SVGID_15_" gradientUnits="userSpaceOnUse" x1="-935.812" y1="261.0415" x2="-750.0652" y2="77.8747" gradientTransform="matrix(1 0 0 1 1128 469)">
								<stop  offset="0" style="stop-color:#F7941E"/>
								<stop  offset="0.638" style="stop-color:#F9ED32"/>
								<stop  offset="1" style="stop-color:#F7941E"/>
							</linearGradient>
							<circle fill="url(#SVGID_15_)" cx="291.629" cy="631.982" r="5.355"/>
						</g>
					</g>
				</g>
			</g>
		</g>
		<g id="Layer_14">
		</g>
	</g>
</g>
<g id="Chrytler_Buiding">
	<polyline fill="#F9ED32" points="200.798,244.658 203.099,168.177 205.88,244.192 	"/>
	<polygon fill="#F9ED32" points="179.41,369.975 184.954,373.938 181.421,376.451 	"/>
	<polygon fill="#F9ED32" points="203.021,353.836 198.09,368.55 207.964,368.467 	"/>
	<polygon fill="#F9ED32" points="219.064,359.495 211.257,368.462 218.271,371.302 	"/>
	<polygon fill="#F9ED32" points="226.44,369.649 220.899,373.61 224.433,376.123 	"/>
	<polygon fill="#F9ED32" points="186.788,359.821 194.597,368.789 187.582,371.628 	"/>
	<polygon fill="#F9ED32" points="203.142,335.492 199.014,350.449 207.552,350.377 	"/>
	<polygon fill="#F9ED32" points="217.155,342.617 210.401,350.375 216.469,352.83 	"/>
	<polygon fill="#F9ED32" points="223.537,351.399 218.745,354.827 221.798,357.001 	"/>
	<polygon fill="#F9ED32" points="189.233,342.899 195.989,350.657 189.921,353.113 	"/>
	<polygon fill="#F9ED32" points="182.853,351.682 187.647,355.109 184.592,357.284 	"/>
	<polygon fill="#F9ED32" points="203.142,315.777 199.211,330.922 206.638,330.86 	"/>
	<polygon fill="#F9ED32" points="216.047,321.526 209.114,330.857 214.388,332.992 	"/>
	<polygon fill="#F9ED32" points="220.533,331.749 216.365,334.728 219.021,336.619 	"/>
	<polygon fill="#F9ED32" points="190.691,321.526 196.585,331.104 191.311,333.237 	"/>
	<polygon fill="#F9ED32" points="203.099,294.875 200.612,310.208 205.585,310.167 	"/>
	<polygon fill="#F9ED32" points="203.792,274.845 200.907,286.82 205.88,286.772 	"/>
	<polygon fill="#F9ED32" points="212.616,303.917 207.974,310.166 211.506,311.595 	"/>
	<polygon fill="#F9ED32" points="195.638,303.917 199.583,310.329 196.05,311.759 	"/>
	<polygon fill="#F9ED32" points="185.161,331.994 189.332,334.973 186.677,336.864 	"/>
	<polygon fill="#F9ED32" points="196.369,373.673 196.369,387.353 203.578,385.947 	"/>
	<polygon fill="#F9ED32" points="185.617,380.513 190.03,392.184 195.143,388.566 	"/>
	<polygon fill="#F9ED32" points="179.473,391.453 184.32,398.616 189.347,393.293 	"/>
	<polygon fill="#F9ED32" points="210.059,373.673 210.059,387.353 202.849,385.947 	"/>
	<polygon fill="#F9ED32" points="220.812,380.513 216.673,391.453 212.049,387.921 	"/>
	<polygon fill="#F9ED32" points="226.953,391.453 222.104,398.616 218.449,393.038 	"/>
	<path fill="none" stroke="#CB892A" stroke-width="2" d="M230.591,387.648c-1.976-10.802-13.727-19.101-27.938-19.101
		c-14.438,0-26.332,8.566-28.019,19.618l-5.079,3.404v35.854h66.931V391.57L230.591,387.648z"/>
	<path fill="none" stroke="#CB892A" stroke-width="2" d="M229.451,383.662v-15.848l-4.636-3.084
		c-1.55-8.491-10.791-15.018-21.962-15.018c-11.351,0-20.704,6.735-22.031,15.422l-3.99,2.68v14.495"/>
	<path fill="none" stroke="#CB892A" stroke-width="2" d="M227.26,366.912v-16.904l-4.251-3.28
		c-1.424-9.021-9.894-15.956-20.136-15.956c-10.404,0-18.979,7.157-20.195,16.393l-3.658,2.845v16.407"/>
	<path fill="none" stroke="#CB892A" stroke-width="2" d="M224.338,348.341v-17.812l-3.734-3.444
		c-1.251-9.479-8.697-16.768-17.698-16.768c-9.144,0-16.681,7.521-17.749,17.223l-3.218,2.989v17.188"/>
	<path fill="none" stroke="#CB892A" stroke-width="2" d="M220.604,327.083l1.035-16.768l-5.937-6.747
		c-0.846-9.48-5.892-16.768-11.989-16.768c-6.193,0-11.297,7.521-12.022,17.223l-6.073,6.291v14.146"/>
	<path fill="none" stroke="#CB892A" stroke-width="2" d="M213.512,294.875c-0.896-21.722-3.11-29.388-10.602-29.212
		c-7.271,0.17-8.305,14.302-8.838,29.212"/>
	<path fill="none" stroke="#CB892A" stroke-width="2" d="M209.114,269.501c-0.315-20.186-1.141-25.303-6.124-25.303
		c-3.977,0-5.063,6.646-5.366,25.565"/>
	<path fill="none" stroke="#CB892A" stroke-width="2" d="M222.392,401.432c-1.719-8.82-9.487-15.482-18.813-15.482
		c-9.324,0-17.092,6.662-18.812,15.482l0,0l-0.355,26.343h38.338L222.392,401.432L222.392,401.432z"/>
	
		<linearGradient id="SVGID_16_" gradientUnits="userSpaceOnUse" x1="-931.6299" y1="-56.4575" x2="-918.5708" y2="-56.4575" gradientTransform="matrix(1 0 0 1 1128 469)">
		<stop  offset="0" style="stop-color:#F7941E"/>
		<stop  offset="0.638" style="stop-color:#F9ED32"/>
		<stop  offset="1" style="stop-color:#F7941E"/>
	</linearGradient>
	<path fill="url(#SVGID_16_)" d="M209.307,405.513c-0.586-3.005-3.232-5.273-6.408-5.273c-3.177,0-5.822,2.27-6.408,5.273l0,0
		l-0.121,19.333h13.059L209.307,405.513L209.307,405.513z"/>
	<line fill="none" stroke="#CB892A" stroke-width="2" x1="230.644" y1="400.238" x2="230.644" y2="428.428"/>
	<line fill="none" stroke="#CB892A" stroke-width="2" x1="176.832" y1="400.238" x2="176.832" y2="428.428"/>
</g>
<g id="Layer_11">
	<path fill="none" stroke="#CB892A" stroke-width="3" d="M-2196.458,883.504c-1.976-10.8-13.727-19.099-27.938-19.099
		c-14.438,0-26.332,8.564-28.019,19.618l-5.079,3.402v65.887h66.931v-65.887L-2196.458,883.504z"/>
	<path fill="none" stroke="#CB892A" stroke-width="3" d="M-2197.598,880.519V863.67l-4.636-3.084
		c-1.55-8.491-10.791-15.016-21.962-15.016c-11.351,0-20.704,6.733-22.031,15.422l-3.99,2.678v14.497"/>
	<path fill="none" stroke="#CB892A" stroke-width="3" d="M-2199.789,863.769v-17.903l-4.251-3.28
		c-1.424-9.022-9.894-15.956-20.136-15.956c-10.404,0-18.979,7.157-20.195,16.391l-3.658,2.847v15.405"/>
	<path fill="none" stroke="#CB892A" stroke-width="3" d="M-2202.711,845.198v-18.814l-3.734-3.442
		c-1.251-9.48-8.697-16.77-17.698-16.77c-9.146,0-16.681,7.521-17.749,17.223l-3.218,2.989v16.188"/>
	<path fill="none" stroke="#CB892A" stroke-width="3" d="M-2206.445,822.939l1.035-16.77l-5.937-6.745
		c-0.846-9.479-5.892-16.768-11.989-16.768c-6.193,0-11.297,7.521-12.022,17.223l-6.073,6.29v13.146"/>
	<path fill="none" stroke="#CB892A" stroke-width="3" d="M-2213.537,790.731c-0.896-21.724-2.255-28.212-10.602-28.212
		c-7.768,0-8.305,13.302-8.838,28.212"/>
	<path fill="none" stroke="#CB892A" stroke-width="3" d="M-2218.352,764.612c-0.315-20.188-0.724-24.561-5.707-24.561
		c-3.977,0-4.598,6.188-4.9,25.108"/>
	<polyline fill="none" stroke="#CB892A" stroke-width="3" points="-2226.251,741.515 -2224.15,666.058 -2221.716,740.054 	"/>
	<path fill="none" stroke="#CB892A" stroke-width="4" stroke-miterlimit="10" d="M-2204.657,897.288
		c-1.719-8.822-9.487-15.484-18.812-15.484c-9.324,0-17.092,6.662-18.812,15.484l0,0l-0.354,56.371h38.338L-2204.657,897.288
		L-2204.657,897.288z"/>
	<path fill="none" stroke="#CB892A" stroke-width="2" stroke-miterlimit="10" d="M-2217.742,901.369
		c-0.586-3.005-3.23-5.275-6.408-5.275s-5.822,2.271-6.408,5.275l0,0l-0.121,52.13h13.059L-2217.742,901.369L-2217.742,901.369z"/>
	
		<line fill="none" stroke="#CB892A" stroke-width="2" stroke-linecap="round" stroke-miterlimit="10" x1="-2196.405" y1="896.094" x2="-2196.405" y2="953.312"/>
	
		<line fill="none" stroke="#CB892A" stroke-width="2" stroke-linecap="round" stroke-miterlimit="10" x1="-2250.217" y1="896.094" x2="-2250.217" y2="953.312"/>
	<polygon fill="#CB892A" points="-2230.68,869.529 -2230.68,883.209 -2223.471,881.803 	"/>
	<polygon fill="#CB892A" points="-2241.432,876.369 -2237.019,888.04 -2231.906,884.422 	"/>
	<polygon fill="#CB892A" points="-2247.576,887.309 -2242.729,894.472 -2237.702,889.149 	"/>
	<polygon fill="#CB892A" points="-2216.99,869.529 -2216.99,883.209 -2224.2,881.803 	"/>
	<polygon fill="#CB892A" points="-2206.237,876.369 -2210.652,888.04 -2215.763,884.422 	"/>
	<polygon fill="#CB892A" points="-2200.096,887.309 -2204.944,894.472 -2209.969,889.149 	"/>
	<polygon fill="#CB892A" points="-2224.027,849.692 -2228.959,864.406 -2219.085,864.323 	"/>
	<polygon fill="#CB892A" points="-2207.984,855.351 -2215.792,864.318 -2208.777,867.158 	"/>
	<polygon fill="#CB892A" points="-2200.608,865.505 -2206.149,869.466 -2202.616,871.979 	"/>
	<polygon fill="#CB892A" points="-2240.261,855.677 -2232.452,864.645 -2239.467,867.484 	"/>
	<polygon fill="#CB892A" points="-2247.639,865.831 -2242.095,869.793 -2245.628,872.307 	"/>
	<polygon fill="#CB892A" points="-2223.907,831.348 -2228.035,846.305 -2219.497,846.233 	"/>
	<polygon fill="#CB892A" points="-2209.894,838.473 -2216.647,846.23 -2210.58,848.686 	"/>
	<polygon fill="#CB892A" points="-2203.512,847.255 -2208.304,850.683 -2205.251,852.857 	"/>
	<polygon fill="#CB892A" points="-2237.815,838.755 -2231.06,846.513 -2237.128,848.969 	"/>
	<polygon fill="#CB892A" points="-2244.196,847.538 -2239.401,850.965 -2242.457,853.14 	"/>
	<polygon fill="#CB892A" points="-2223.907,811.633 -2227.838,826.778 -2220.411,826.716 	"/>
	<polygon fill="#CB892A" points="-2211.002,817.382 -2217.935,826.713 -2212.661,828.848 	"/>
	<polygon fill="#CB892A" points="-2206.516,827.605 -2210.684,830.584 -2208.027,832.475 	"/>
	<polygon fill="#CB892A" points="-2236.357,817.382 -2230.464,826.959 -2235.738,829.093 	"/>
	<polygon fill="#CB892A" points="-2223.95,790.731 -2226.437,806.064 -2221.464,806.023 	"/>
	<polygon fill="#CB892A" points="-2223.95,765.162 -2226.437,782.676 -2221.464,782.628 	"/>
	<polygon fill="#CB892A" points="-2214.433,799.771 -2219.075,806.021 -2215.543,807.451 	"/>
	<polygon fill="#CB892A" points="-2231.411,799.771 -2227.466,806.185 -2230.999,807.615 	"/>
	<polygon fill="#CB892A" points="-2241.888,827.85 -2237.717,830.829 -2240.372,832.72 	"/>
</g>
</svg>
